<?xml version="1.0" encoding="UTF-8" standalone="no"?>
<!-- Created with Inkscape (http://www.inkscape.org/) -->

<svg
   xmlns:dc="http://purl.org/dc/elements/1.1/"
   xmlns:cc="http://creativecommons.org/ns#"
   xmlns:rdf="http://www.w3.org/1999/02/22-rdf-syntax-ns#"
   xmlns:svg="http://www.w3.org/2000/svg"
   xmlns="http://www.w3.org/2000/svg"
   xmlns:sodipodi="http://sodipodi.sourceforge.net/DTD/sodipodi-0.dtd"
   xmlns:inkscape="http://www.inkscape.org/namespaces/inkscape"
   width="210mm"
   height="297mm"
   viewBox="0 0 210 297"
   version="1.1"
   id="svg416"
   inkscape:version="0.92.3 (2405546, 2018-03-11)"
   sodipodi:docname="face_gauche.svg">
  <defs
     id="defs410" />
  <sodipodi:namedview
     id="base"
     pagecolor="#ffffff"
     bordercolor="#666666"
     borderopacity="1.0"
     inkscape:pageopacity="0.0"
     inkscape:pageshadow="2"
     inkscape:zoom="0.35"
     inkscape:cx="400"
     inkscape:cy="560"
     inkscape:document-units="mm"
     inkscape:current-layer="layer1"
     showgrid="false"
     inkscape:window-width="1366"
     inkscape:window-height="705"
     inkscape:window-x="-8"
     inkscape:window-y="-8"
     inkscape:window-maximized="1" />
  <metadata
     id="metadata413">
    <rdf:RDF>
      <cc:Work
         rdf:about="">
        <dc:format>image/svg+xml</dc:format>
        <dc:type
           rdf:resource="http://purl.org/dc/dcmitype/StillImage" />
        <dc:title></dc:title>
      </cc:Work>
    </rdf:RDF>
  </metadata>
  <g
     inkscape:label="Calque 1"
     inkscape:groupmode="layer"
     id="layer1">
    <path
       id="path261"
       inkscape:label="part"
       style="fill:none;stroke:#000000;stroke-width:1"
       d="m -122.89286,-21.577381 h 1.19029 v -5 h 6.09 v 5 h 6.1453 v -5 h 6.09 v 5 h 6.145288 v -5 h 6.09 v 5 h 6.1453 v -5 h 6.09 v 5 h 6.14529 v -5 h 6.090001 v 5 h 6.145294 v -5 h 6.09 v 5 h 6.145294 v -5 h 6.090002 v 5 h 6.145292 v -5 h 6.090002 v 5 h 6.145295 v -5 h 6.09 v 5 h 6.14529 v -5 h 6.0900001 v 5 h 6.1453 v -5 h 6.09 v 5 h 6.1452899 v -5 h 6.09 v 5 h 6.14529 v -5 h 6.09001 v 5 h 6.14529 v -5 h 6.09 v 5 h 6.14529 v -5 h 6.09 v 5 h 6.1453 v -5 h 6.08999 v 5 h 6.1453 v -5 h 6.09 v 5 h 6.14529 v -5 h 6.09001 v 5 h 6.14529 v -5 h 6.090002 v 5 h 6.14529 v -5 h 6.09001 v 5 h 6.14528 v -5 h 6.09 v 5 h 6.1453 v -5 h 6.08999 v 5 h 6.14529 v -5 h 6.09002 v 5 h 6.1453 v -5 h 6.08999 v 5 h 6.14529 v -5 h 6.09 v 5 h 6.14531 v -5 h 6.09 v 5 h 6.14529 v -5 h 6.08999 v 5 h 6.1453 v -5 h 6.08999 v 5 h 6.14532 v -5 h 6.08999 v 5 h 6.14529 v -5 h 6.09 v 5 h 6.14529 v -5 h 6.08999 v 5 h 6.1453 v -5 h 6.09002 v 5 h 6.14529 v -5 h 6.08999 v 5 h 1.19028"
       inkscape:connector-curvature="0" />
    <path
       id="path263"
       inkscape:label="part"
       style="fill:none;stroke:#000000;stroke-width:1"
       d="m 277.10713,-21.577381 v 1.10885 h 5.00002 v 6.09 h -5.00002 v 6.06385 h 5.00002 v 6.09 h -5.00002 V 3.83916 h 5.00002 v 6.09 h -5.00002 v 6.06385 h 5.00002 v 6.089999 h -5.00002 v 6.06384 h 5.00002 v 6.089999 h -5.00002 v 6.063851 h 5.00002 v 6.090002 h -5.00002 v 6.063848 h 5.00002 v 6.090002 h -5.00002 v 6.063839 h 5.00002 v 6.09 h -5.00002 v 6.063849 h 5.00002 v 6.09 h -5.00002 v 6.06385 h 5.00002 v 6.09 h -5.00002 v 6.063841 h 5.00002 v 6.09 h -5.00002 v 6.06385 h 5.00002 v 6.09 h -5.00002 v 6.06384 h 5.00002 v 6.09 h -5.00002 v 6.06385 h 5.00002 v 6.09 h -5.00002 v 6.06385 h 5.00002 v 6.09 h -5.00002 v 6.06384 h 5.00002 v 6.09 h -5.00002 v 6.06385 h 5.00002 v 6.09 h -5.00002 v 6.06384 h 5.00002 v 6.09 h -5.00002 v 6.06385 h 5.00002 v 6.09 h -5.00002 v 6.06385 h 5.00002 v 6.09 h -5.00002 v 6.06384 h 5.00002 v 6.09 h -5.00002 v 6.06385 h 5.00002 v 6.09 h -5.00002 v 6.06386 h 5.00002 v 6.08999 h -5.00002 v 6.06385 h 5.00002 v 6.09 h -5.00002 v 6.06385 h 5.00002 v 6.09 h -5.00002 v 1.10884"
       inkscape:connector-curvature="0" />
    <path
       id="path265"
       inkscape:label="part"
       style="fill:none;stroke:#000000;stroke-width:1"
       d="m 277.10713,278.42263 h -1.19028 v 4.99999 h -6.08999 v -4.99999 h -6.14529 v 4.99999 h -6.09002 v -4.99999 h -6.1453 v 4.99999 h -6.08999 v -4.99999 h -6.14529 v 4.99999 h -6.09 v -4.99999 h -6.14529 v 4.99999 h -6.08999 v -4.99999 h -6.14532 v 4.99999 h -6.08999 v -4.99999 h -6.1453 v 4.99999 h -6.08999 v -4.99999 h -6.14529 v 4.99999 h -6.09 v -4.99999 h -6.14531 v 4.99999 h -6.09 v -4.99999 h -6.14529 v 4.99999 h -6.08999 v -4.99999 h -6.1453 v 4.99999 h -6.09002 v -4.99999 h -6.14529 v 4.99999 h -6.08999 v -4.99999 h -6.1453 v 4.99999 h -6.09 v -4.99999 h -6.14528 v 4.99999 h -6.09001 v -4.99999 h -6.14529 v 4.99999 h -6.090002 v -4.99999 h -6.14529 v 4.99999 h -6.09001 v -4.99999 h -6.14529 v 4.99999 h -6.09 v -4.99999 h -6.1453 v 4.99999 h -6.08999 v -4.99999 h -6.1453 v 4.99999 h -6.09 v -4.99999 h -6.14529 v 4.99999 h -6.09 v -4.99999 h -6.14529 v 4.99999 h -6.09001 v -4.99999 h -6.14529 v 4.99999 h -6.09 v -4.99999 H 6.7403781 v 4.99999 h -6.09 v -4.99999 h -6.1453 v 4.99999 h -6.0900001 v -4.99999 h -6.14529 v 4.99999 h -6.09 v -4.99999 h -6.145295 v 4.99999 h -6.090002 v -4.99999 h -6.145292 v 4.99999 h -6.090002 v -4.99999 h -6.145294 v 4.99999 h -6.09 v -4.99999 h -6.145294 v 4.99999 h -6.090001 v -4.99999 h -6.14529 v 4.99999 h -6.09 v -4.99999 h -6.1453 v 4.99999 h -6.09 v -4.99999 h -6.145288 v 4.99999 h -6.09 v -4.99999 h -6.1453 v 4.99999 h -6.09 v -4.99999 h -1.19029"
       inkscape:connector-curvature="0" />
    <path
       id="path267"
       inkscape:label="part"
       style="fill:none;stroke:#000000;stroke-width:1"
       d="m -122.89286,278.42263 v -1.10884 h -5 v -6.09 h 5 v -6.06385 h -5 v -6.09 h 5 v -6.06385 h -5 v -6.08999 h 5 v -6.06386 h -5 v -6.09 h 5 v -6.06385 h -5 v -6.09 h 5 v -6.06384 h -5 v -6.09 h 5 v -6.06385 h -5 v -6.09 h 5 v -6.06385 h -5 v -6.09 h 5 v -6.06384 h -5 v -6.09 h 5 v -6.06385 h -5 v -6.09 h 5 v -6.06384 h -5 v -6.09 h 5 v -6.06385 h -5 v -6.09 h 5 v -6.06385 h -5 v -6.09 h 5 v -6.06384 h -5 v -6.09 h 5 v -6.06385 h -5 v -6.09 h 5 v -6.063841 h -5 v -6.09 h 5 v -6.06385 h -5 v -6.09 h 5 V 70.69839 h -5 v -6.09 h 5 v -6.063839 h -5 v -6.090002 h 5 v -6.063848 h -5 v -6.090002 h 5 v -6.063851 h -5 v -6.089999 h 5 v -6.06384 h -5 V 15.99301 h 5 V 9.92916 h -5 v -6.09 h 5 v -6.063841 h -5 v -6.09 h 5 v -6.06385 h -5 v -6.09 h 5 v -1.10885"
       inkscape:connector-curvature="0" />
  </g>
</svg>
