<?xml version="1.0" encoding="UTF-8" standalone="no"?>
<!-- Created with Inkscape (http://www.inkscape.org/) -->

<svg
   xmlns:dc="http://purl.org/dc/elements/1.1/"
   xmlns:cc="http://creativecommons.org/ns#"
   xmlns:rdf="http://www.w3.org/1999/02/22-rdf-syntax-ns#"
   xmlns:svg="http://www.w3.org/2000/svg"
   xmlns="http://www.w3.org/2000/svg"
   xmlns:sodipodi="http://sodipodi.sourceforge.net/DTD/sodipodi-0.dtd"
   xmlns:inkscape="http://www.inkscape.org/namespaces/inkscape"
   width="210mm"
   height="297mm"
   viewBox="0 0 210 297"
   version="1.1"
   id="svg544"
   inkscape:version="0.92.3 (2405546, 2018-03-11)"
   sodipodi:docname="face_dessus.svg">
  <defs
     id="defs538" />
  <sodipodi:namedview
     id="base"
     pagecolor="#ffffff"
     bordercolor="#666666"
     borderopacity="1.0"
     inkscape:pageopacity="0.0"
     inkscape:pageshadow="2"
     inkscape:zoom="0.35"
     inkscape:cx="400"
     inkscape:cy="560"
     inkscape:document-units="mm"
     inkscape:current-layer="layer1"
     showgrid="false"
     inkscape:window-width="1366"
     inkscape:window-height="705"
     inkscape:window-x="-8"
     inkscape:window-y="-8"
     inkscape:window-maximized="1" />
  <metadata
     id="metadata541">
    <rdf:RDF>
      <cc:Work
         rdf:about="">
        <dc:format>image/svg+xml</dc:format>
        <dc:type
           rdf:resource="http://purl.org/dc/dcmitype/StillImage" />
        <dc:title></dc:title>
      </cc:Work>
    </rdf:RDF>
  </metadata>
  <g
     inkscape:label="Calque 1"
     inkscape:groupmode="layer"
     id="layer1">
    <path
       inkscape:connector-curvature="0"
       id="path321"
       inkscape:label="part"
       style="fill:none;stroke:#000000;stroke-width:1"
       d="m -120.33334,-0.87500048 h 6.2803 V 4.1250005 h 5.91 v -5.00000098 h 6.3253 V 4.1250005 h 5.910004 v -5.00000098 h 6.3253 V 4.1250005 h 5.91 v -5.00000098 h 6.3253 V 4.1250005 h 5.91 v -5.00000098 h 6.3253 V 4.1250005 h 5.91 v -5.00000098 h 6.3253 V 4.1250005 h 5.91 v -5.00000098 h 6.3253 V 4.1250005 h 5.91 v -5.00000098 h 6.3253 V 4.1250005 h 5.91 v -5.00000098 h 6.3252 V 4.1250005 h 5.91 v -5.00000098 h 6.3252998 V 4.1250005 h 5.91 v -5.00000098 h 6.325298 V 4.1250005 h 5.9100002 v -5.00000098 h 6.3253 V 4.1250005 h 5.91 v -5.00000098 h 6.3253 V 4.1250005 h 5.91 v -5.00000098 h 6.3253 V 4.1250005 h 5.91 v -5.00000098 h 6.3253 V 4.1250005 h 5.91 v -5.00000098 h 6.3253 V 4.1250005 h 5.91 v -5.00000098 h 6.3253 V 4.1250005 h 5.91 v -5.00000098 h 6.3253 V 4.1250005 h 5.91 v -5.00000098 h 6.325298 V 4.1250005 h 5.91 v -5.00000098 h 6.3253 V 4.1250005 h 5.91 v -5.00000098 h 6.3253 V 4.1250005 h 5.91 v -5.00000098 h 6.3253 V 4.1250005 h 5.91 v -5.00000098 h 6.32529 V 4.1250005 h 5.91003 v -5.00000098 h 6.32528 V 4.1250005 h 5.91 v -5.00000098 h 6.32532 V 4.1250005 h 5.90999 v -5.00000098 h 6.32519 V 4.1250005 h 5.90999 v -5.00000098 h 6.32532 V 4.1250005 h 5.91 v -5.00000098 h 6.32528 V 4.1250005 h 5.91 v -5.00000098 h 6.32532 V 4.1250005 h 5.90999 v -5.00000098 h 6.32529 V 4.1250005 h 5.91003 v -5.00000098 h 6.32528 V 4.1250005 h 5.91 v -5.00000098 h 6.32532 V 4.1250005 h 5.91 v -5.00000098 h 6.32528 V 4.1250005 h 5.91 v -5.00000098 h 6.28031" />
    <path
       inkscape:connector-curvature="0"
       id="path323"
       inkscape:label="part"
       style="fill:none;stroke:#000000;stroke-width:1"
       d="M 289.66667,-0.87500048 V 5.3238495 h -5.00002 V 11.23385 h 5.00002 v 6.24384 h -5.00002 v 5.91 h 5.00002 v 6.243849 h -5.00002 v 5.910001 h 5.00002 v 6.243841 h -5.00002 v 5.910001 h 5.00002 v 6.243849 h -5.00002 v 5.91 h 5.00002 v 6.24385 h -5.00002 v 5.91 h 5.00002 v 6.243839 h -5.00002 v 5.91 h 5.00002 v 6.243852 h -5.00002 v 5.909998 h 5.00002 v 6.24385 h -5.00002 v 5.91 h 5.00002 v 6.24384 h -5.00002 v 5.91 h 5.00002 v 6.24385 h -5.00002 v 5.91 h 5.00002 v 6.24384 h -5.00002 v 5.91 h 5.00002 V 151.17 h -5.00002 v 5.91 h 5.00002 v 6.24385 h -5.00002 v 5.91 h 5.00002 v 6.24384 h -5.00002 v 5.91 h 5.00002 v 6.24385 h -5.00002 v 5.91 h 5.00002 v 6.24384 h -5.00002 v 5.91 h 5.00002 v 6.24385 h -5.00002 v 5.91 h 5.00002 v 6.24385 h -5.00002 v 5.91 h 5.00002 v 6.24384 h -5.00002 v 5.91 h 5.00002 v 6.24385 h -5.00002 v 5.91 h 5.00002 v 6.24385 h -5.00002 v 5.90999 h 5.00002 v 6.24385 h -5.00002 v 5.91 h 5.00002 v 6.24385 h -5.00002 v 5.91 h 5.00002 v 6.24385 h -5.00002 v 5.90999 h 5.00002 v 6.19885" />
    <path
       inkscape:connector-curvature="0"
       id="path325"
       inkscape:label="part"
       style="fill:none;stroke:#000000;stroke-width:1"
       d="m 289.66667,309.125 h -6.28031 v -4.99999 h -5.91 v 4.99999 h -6.32528 v -4.99999 h -5.91 v 4.99999 h -6.32532 v -4.99999 h -5.91 v 4.99999 h -6.32528 v -4.99999 h -5.91003 v 4.99999 h -6.32529 v -4.99999 h -5.90999 v 4.99999 h -6.32532 v -4.99999 h -5.91 v 4.99999 h -6.32528 v -4.99999 h -5.91 v 4.99999 h -6.32532 v -4.99999 h -5.90999 v 4.99999 h -6.32519 v -4.99999 h -5.90999 v 4.99999 h -6.32532 v -4.99999 h -5.91 v 4.99999 h -6.32528 v -4.99999 h -5.91003 v 4.99999 h -6.32529 v -4.99999 h -5.91 v 4.99999 h -6.3253 v -4.99999 h -5.91 v 4.99999 h -6.3253 v -4.99999 h -5.91 v 4.99999 h -6.3253 v -4.99999 h -5.91 v 4.99999 h -6.325298 v -4.99999 h -5.91 v 4.99999 h -6.3253 v -4.99999 h -5.91 v 4.99999 h -6.3253 v -4.99999 h -5.91 v 4.99999 h -6.3253 v -4.99999 h -5.91 v 4.99999 h -6.3253 v -4.99999 h -5.91 v 4.99999 h -6.3253 v -4.99999 h -5.91 v 4.99999 h -6.3253 v -4.99999 h -5.91 v 4.99999 h -6.3253 v -4.99999 H 8.2998618 v 4.99999 h -6.325298 v -4.99999 h -5.91 v 4.99999 h -6.3252998 v -4.99999 h -5.91 v 4.99999 h -6.3252 v -4.99999 h -5.91 v 4.99999 h -6.3253 v -4.99999 h -5.91 v 4.99999 h -6.3253 v -4.99999 h -5.91 v 4.99999 h -6.3253 v -4.99999 h -5.91 v 4.99999 h -6.3253 v -4.99999 h -5.91 v 4.99999 h -6.3253 v -4.99999 h -5.91 v 4.99999 h -6.3253 v -4.99999 h -5.910004 v 4.99999 h -6.3253 v -4.99999 h -5.91 v 4.99999 h -6.2803" />
    <path
       inkscape:connector-curvature="0"
       id="path327"
       inkscape:label="part"
       style="fill:none;stroke:#000000;stroke-width:1"
       d="m -120.33334,309.125 v -6.19885 h 5 v -5.90999 h -5 v -6.24385 h 5 v -5.91 h -5 v -6.24385 h 5 v -5.91 h -5 v -6.24385 h 5 v -5.90999 h -5 v -6.24385 h 5 v -5.91 h -5 v -6.24385 h 5 v -5.91 h -5 v -6.24384 h 5 v -5.91 h -5 v -6.24385 h 5 v -5.91 h -5 v -6.24385 h 5 v -5.91 h -5 v -6.24384 h 5 v -5.91 h -5 v -6.24385 h 5 v -5.91 h -5 v -6.24384 h 5 v -5.91 h -5 V 157.08 h 5 v -5.91 h -5 v -6.24385 h 5 v -5.91 h -5 v -6.24384 h 5 v -5.91 h -5 v -6.24385 h 5 v -5.91 h -5 v -6.24384 h 5 v -5.91 h -5 v -6.24385 h 5 v -5.909998 h -5 V 84.15692 h 5 v -5.91 h -5 v -6.243839 h 5 v -5.91 h -5 v -6.24385 h 5 v -5.91 h -5 v -6.243849 h 5 v -5.910001 h -5 V 35.54154 h 5 v -5.910001 h -5 V 23.38769 h 5 v -5.91 h -5 v -6.24384 h 5 V 5.3238495 h -5 v -6.19884998" />
  </g>
</svg>
