<?xml version="1.0" encoding="UTF-8" standalone="no"?>
<!-- Created with Inkscape (http://www.inkscape.org/) -->

<svg
   xmlns:dc="http://purl.org/dc/elements/1.1/"
   xmlns:cc="http://creativecommons.org/ns#"
   xmlns:rdf="http://www.w3.org/1999/02/22-rdf-syntax-ns#"
   xmlns:svg="http://www.w3.org/2000/svg"
   xmlns="http://www.w3.org/2000/svg"
   xmlns:sodipodi="http://sodipodi.sourceforge.net/DTD/sodipodi-0.dtd"
   xmlns:inkscape="http://www.inkscape.org/namespaces/inkscape"
   width="210mm"
   height="297mm"
   viewBox="0 0 210 297"
   version="1.1"
   id="svg448"
   inkscape:version="0.92.3 (2405546, 2018-03-11)"
   sodipodi:docname="face_arriere.svg">
  <defs
     id="defs442" />
  <sodipodi:namedview
     id="base"
     pagecolor="#ffffff"
     bordercolor="#666666"
     borderopacity="1.0"
     inkscape:pageopacity="0.0"
     inkscape:pageshadow="2"
     inkscape:zoom="0.35"
     inkscape:cx="400"
     inkscape:cy="560"
     inkscape:document-units="mm"
     inkscape:current-layer="layer1"
     showgrid="false"
     inkscape:window-width="1366"
     inkscape:window-height="705"
     inkscape:window-x="-8"
     inkscape:window-y="-8"
     inkscape:window-maximized="1" />
  <metadata
     id="metadata445">
    <rdf:RDF>
      <cc:Work
         rdf:about="">
        <dc:format>image/svg+xml</dc:format>
        <dc:type
           rdf:resource="http://purl.org/dc/dcmitype/StillImage" />
        <dc:title></dc:title>
      </cc:Work>
    </rdf:RDF>
  </metadata>
  <g
     inkscape:label="Calque 1"
     inkscape:groupmode="layer"
     id="layer1">
    <path
       id="path329"
       inkscape:label="part"
       style="fill:none;stroke:#000000;stroke-width:1"
       d="m -103.70238,-56.458336 h 6.190288 v -5 h 6.09 v 5 h 6.1453 v -5 h 6.09 v 5 h 6.14529 v -5 h 6.09 v 5 h 6.1453 v -5 h 6.09 v 5 h 6.14529 v -5 h 6.09 v 5 h 6.14529 v -5 h 6.09 v 5 h 6.1453 v -5 h 6.09 v 5 h 6.14529 v -5 h 6.0900001 v 5 h 6.1453 v -5 h 6.09 v 5 h 6.1452899 v -5 h 6.09 v 5 h 6.14529 v -5 h 6.09 v 5 h 6.1453 v -5 h 6.09 v 5 h 6.14529 v -5 h 6.09 v 5 h 6.1453 v -5 h 6.09 v 5 h 6.14529 v -5 h 6.09 v 5 h 6.1453 v -5 h 6.09 v 5 h 6.14529 v -5 h 6.089992 v 5 h 6.14529 v -5 h 6.09 v 5 h 6.1453 v -5 h 6.09 v 5 h 6.14529 v -5 h 6.09 v 5 h 6.1453 v -5 h 6.09 v 5 h 6.14529 v -5 h 6.08999 v 5 h 6.14529 v -5 h 6.09002 v 5 h 6.1453 v -5 h 6.08999 v 5 h 6.14529 v -5 h 6.09 v 5 h 6.14531 v -5 h 6.09 v 5 h 6.14529 v -5 h 6.08999 v 5 h 6.1453 v -5 h 6.08999 v 5 h 6.14529 v -5 h 6.09002 v 5 h 6.14529 v -5 h 6.09 v 5 h 6.14529 v -5 h 6.08999 v 5 h 6.1453 v -5 h 6.09002 v 5 h 6.14529 v -5 h 6.08999 v 5 h 6.19031"
       inkscape:connector-curvature="0" />
    <path
       id="path331"
       inkscape:label="part"
       style="fill:none;stroke:#000000;stroke-width:1"
       d="m 306.29763,-56.458336 v 1.28029 h -5.00003 v 5.91 h 5.00003 v 6.3253 h -5.00003 v 5.91 h 5.00003 v 6.32529 h -5.00003 v 5.91 h 5.00003 v 6.32529 h -5.00003 v 5.91 h 5.00003 v 6.3252998 h -5.00003 v 5.91000001 h 5.00003 V 5.9984238 h -5.00003 v 5.9100002 h 5.00003 v 6.3253 h -5.00003 v 5.91 h 5.00003 v 6.32529 h -5.00003 v 5.91 h 5.00003 v 6.3253 h -5.00003 v 5.91 h 5.00003 v 6.32529 h -5.00003 v 5.91 h 5.00003 v 6.325298 h -5.00003 v 5.90999 h 5.00003 v 6.3253 h -5.00003 v 5.91 h 5.00003 v 6.32529 h -5.00003 v 5.91 h 5.00003 v 6.325298 h -5.00003 v 5.91 h 5.00003 v 6.32529 h -5.00003 v 5.91 h 5.00003 v 6.32529 h -5.00003 v 5.91 h 5.00003 v 6.3253 h -5.00003 v 5.91 h 5.00003 v 6.32529 h -5.00003 v 5.91 h 5.00003 v 6.3253 h -5.00003 v 5.91 h 5.00003 v 6.32529 h -5.00003 v 5.91 h 5.00003 v 6.3253 h -5.00003 v 5.91 h 5.00003 v 6.32529 h -5.00003 v 5.91001 h 5.00003 v 6.32529 h -5.00003 v 5.90999 h 5.00003 v 6.32529 h -5.00003 v 5.91003 h 5.00003 v 6.32528 h -5.00003 v 5.91 h 5.00003 v 6.32529 h -5.00003 v 5.91 h 5.00003 v 6.32529 h -5.00003 v 5.90999 h 5.00003 v 6.32532 h -5.00003 v 5.91 h 5.00003 v 6.32528 h -5.00003 v 5.91 h 5.00003 v 6.32529 h -5.00003 v 5.91 h 5.00003 v 6.32531 h -5.00003 v 5.91 h 5.00003 v 6.32529 h -5.00003 v 5.91 h 5.00003 v 6.32528 h -5.00003 v 5.91 h 5.00003 v 1.28029"
       inkscape:connector-curvature="0" />
    <path
       id="path333"
       inkscape:label="part"
       style="fill:none;stroke:#000000;stroke-width:1"
       d="m 306.29763,343.54165 h -6.19031 v 5.00002 h -6.08999 v -5.00002 h -6.14529 v 5.00002 h -6.09002 v -5.00002 h -6.1453 v 5.00002 h -6.08999 v -5.00002 h -6.14529 v 5.00002 h -6.09 v -5.00002 h -6.14529 v 5.00002 h -6.09002 v -5.00002 h -6.14529 v 5.00002 h -6.08999 v -5.00002 h -6.1453 v 5.00002 h -6.08999 v -5.00002 h -6.14529 v 5.00002 h -6.09 v -5.00002 h -6.14531 v 5.00002 h -6.09 v -5.00002 h -6.14529 v 5.00002 h -6.08999 v -5.00002 h -6.1453 v 5.00002 h -6.09002 v -5.00002 h -6.14529 v 5.00002 h -6.08999 v -5.00002 h -6.14529 v 5.00002 h -6.09 v -5.00002 h -6.1453 v 5.00002 h -6.09 v -5.00002 h -6.14529 v 5.00002 h -6.09 v -5.00002 h -6.1453 v 5.00002 h -6.09 v -5.00002 h -6.14529 v 5.00002 h -6.089992 v -5.00002 h -6.14529 v 5.00002 h -6.09 v -5.00002 h -6.1453 v 5.00002 h -6.09 v -5.00002 h -6.14529 v 5.00002 h -6.09 v -5.00002 h -6.1453 v 5.00002 h -6.09 v -5.00002 h -6.14529 v 5.00002 h -6.09 v -5.00002 h -6.1453 v 5.00002 h -6.09 v -5.00002 h -6.14529 v 5.00002 h -6.09 v -5.00002 H 6.4602681 v 5.00002 h -6.09 v -5.00002 h -6.1453 v 5.00002 h -6.0900001 v -5.00002 h -6.14529 v 5.00002 h -6.09 v -5.00002 h -6.1453 v 5.00002 h -6.09 v -5.00002 h -6.14529 v 5.00002 h -6.09 v -5.00002 h -6.14529 v 5.00002 h -6.09 v -5.00002 h -6.1453 v 5.00002 h -6.09 v -5.00002 h -6.14529 v 5.00002 h -6.09 v -5.00002 h -6.1453 v 5.00002 h -6.09 v -5.00002 h -6.190288"
       inkscape:connector-curvature="0" />
    <path
       id="path335"
       inkscape:label="part"
       style="fill:none;stroke:#000000;stroke-width:1"
       d="m -103.70238,343.54165 v -1.28029 h 4.999998 v -5.91 h -4.999998 v -6.32528 h 4.999998 v -5.91 h -4.999998 v -6.32529 h 4.999998 v -5.91 h -4.999998 v -6.32531 h 4.999998 v -5.91 h -4.999998 v -6.32529 h 4.999998 v -5.91 h -4.999998 v -6.32528 h 4.999998 v -5.91 h -4.999998 v -6.32532 h 4.999998 v -5.90999 h -4.999998 v -6.32529 h 4.999998 v -5.91 h -4.999998 v -6.32529 h 4.999998 v -5.91 h -4.999998 v -6.32528 h 4.999998 v -5.91003 h -4.999998 v -6.32529 h 4.999998 v -5.90999 h -4.999998 v -6.32529 h 4.999998 v -5.91001 h -4.999998 v -6.32529 h 4.999998 v -5.91 h -4.999998 v -6.3253 h 4.999998 v -5.91 h -4.999998 v -6.32529 h 4.999998 v -5.91 h -4.999998 v -6.3253 h 4.999998 v -5.91 h -4.999998 v -6.32529 h 4.999998 v -5.91 h -4.999998 v -6.3253 h 4.999998 v -5.91 h -4.999998 v -6.32529 h 4.999998 v -5.91 h -4.999998 v -6.32529 h 4.999998 v -5.91 h -4.999998 v -6.325298 h 4.999998 v -5.91 h -4.999998 v -6.32529 h 4.999998 v -5.91 h -4.999998 v -6.3253 h 4.999998 v -5.90999 h -4.999998 v -6.325298 h 4.999998 v -5.91 h -4.999998 v -6.32529 h 4.999998 v -5.91 h -4.999998 v -6.3253 h 4.999998 v -5.91 h -4.999998 v -6.32529 h 4.999998 v -5.91 h -4.999998 v -6.3253 h 4.999998 V 5.9984238 h -4.999998 v -6.32528999 h 4.999998 V -6.2368662 h -4.999998 v -6.3252998 h 4.999998 v -5.91 h -4.999998 v -6.32529 h 4.999998 v -5.91 h -4.999998 v -6.32529 h 4.999998 v -5.91 h -4.999998 v -6.3253 h 4.999998 v -5.91 h -4.999998 v -1.28029"
       inkscape:connector-curvature="0" />
  </g>
</svg>
