<?xml version="1.0" encoding="UTF-8" standalone="no"?>
<!-- Created with Inkscape (http://www.inkscape.org/) -->

<svg
   xmlns:dc="http://purl.org/dc/elements/1.1/"
   xmlns:cc="http://creativecommons.org/ns#"
   xmlns:rdf="http://www.w3.org/1999/02/22-rdf-syntax-ns#"
   xmlns:svg="http://www.w3.org/2000/svg"
   xmlns="http://www.w3.org/2000/svg"
   xmlns:sodipodi="http://sodipodi.sourceforge.net/DTD/sodipodi-0.dtd"
   xmlns:inkscape="http://www.inkscape.org/namespaces/inkscape"
   width="210mm"
   height="297mm"
   viewBox="0 0 210 297"
   version="1.1"
   id="svg480"
   inkscape:version="0.92.3 (2405546, 2018-03-11)"
   sodipodi:docname="face_bas.svg">
  <defs
     id="defs474" />
  <sodipodi:namedview
     id="base"
     pagecolor="#ffffff"
     bordercolor="#666666"
     borderopacity="1.0"
     inkscape:pageopacity="0.0"
     inkscape:pageshadow="2"
     inkscape:zoom="0.35"
     inkscape:cx="400"
     inkscape:cy="560"
     inkscape:document-units="mm"
     inkscape:current-layer="layer1"
     showgrid="false"
     inkscape:window-width="1366"
     inkscape:window-height="705"
     inkscape:window-x="-8"
     inkscape:window-y="-8"
     inkscape:window-maximized="1" />
  <metadata
     id="metadata477">
    <rdf:RDF>
      <cc:Work
         rdf:about="">
        <dc:format>image/svg+xml</dc:format>
        <dc:type
           rdf:resource="http://purl.org/dc/dcmitype/StillImage" />
        <dc:title></dc:title>
      </cc:Work>
    </rdf:RDF>
  </metadata>
  <g
     inkscape:label="Calque 1"
     inkscape:groupmode="layer"
     id="layer1">
    <path
       id="path305"
       inkscape:label="part"
       style="fill:none;stroke:#000000;stroke-width:1"
       d="m -94.630957,-50.011905 h 6.28029 v 5 h 5.91 v -5 h 6.3253 v 5 h 5.91 v -5 h 6.325289 v 5 h 5.910001 v -5 h 6.325291 v 5 h 5.91 v -5 h 6.325299 v 5 h 5.91 v -5 h 6.325291 v 5 h 5.91 v -5 h 6.325299 v 5 h 5.9099996 v -5 h 6.325291 v 5 h 5.91 v -5 h 6.325289 v 5 h 5.9100004 v -5 h 6.3253 v 5 h 5.91 v -5 h 6.32529 v 5 h 5.91 v -5 h 6.3253 v 5 h 5.91 v -5 h 6.32529 v 5 h 5.91 v -5 h 6.32529 v 5 h 5.91 v -5 h 6.3253 v 5 h 5.91 v -5 h 6.32529 v 5 h 5.909997 v -5 h 6.3253 v 5 h 5.91 v -5 h 6.32529 v 5 h 5.91 v -5 h 6.3253 v 5 h 5.91 v -5 h 6.32529 v 5 h 5.91 v -5 h 6.32529 v 5 h 5.91 v -5 h 6.3253 v 5 h 5.91001 v -5 h 6.32529 v 5 h 5.90999 v -5 h 6.32529 v 5 h 5.91003 v -5 h 6.32528 v 5 h 5.91 v -5 h 6.32529 v 5 h 5.91 v -5 h 6.32529 v 5 h 5.90999 v -5 h 6.32529 v 5 h 5.91003 v -5 h 6.32528 v 5 h 5.91 v -5 h 6.32529 v 5 h 5.91 v -5 h 6.32528 v 5 h 5.91 v -5 h 6.32532 v 5 h 5.91 v -5 h 6.32528 v 5 h 5.91 v -5 h 6.28031"
       inkscape:connector-curvature="0" />
    <path
       id="path307"
       inkscape:label="part"
       style="fill:none;stroke:#000000;stroke-width:1"
       d="m 315.36905,-50.011905 v 6.19885 h -5.00002 v 5.91 h 5.00002 v 6.24385 h -5.00002 v 5.91 h 5.00002 v 6.243839 h -5.00002 v 5.910001 h 5.00002 v 6.2438522 h -5.00002 v 5.909998 h 5.00002 v 6.243841 h -5.00002 v 5.9099998 h 5.00002 v 6.24385 h -5.00002 v 5.91 h 5.00002 v 6.243849 h -5.00002 v 5.910001 h 5.00002 v 6.243841 h -5.00002 v 5.909998 h 5.00002 v 6.24385 h -5.00002 v 5.91 h 5.00002 v 6.24385 h -5.00002 v 5.91 h 5.00002 v 6.24384 h -5.00002 v 5.91 h 5.00002 v 6.24385 h -5.00002 v 5.91 h 5.00002 v 6.243845 h -5.00002 v 5.91 h 5.00002 v 6.24385 h -5.00002 v 5.91 h 5.00002 v 6.24385 h -5.00002 v 5.91 h 5.00002 v 6.24384 h -5.00002 v 5.91 h 5.00002 v 6.24385 h -5.00002 v 5.91 h 5.00002 v 6.24384 h -5.00002 v 5.91 h 5.00002 v 6.24385 h -5.00002 v 5.91 h 5.00002 v 6.24385 h -5.00002 v 5.91 h 5.00002 v 6.24384 h -5.00002 v 5.91 h 5.00002 v 6.24385 h -5.00002 v 5.90999 h 5.00002 v 6.24385 h -5.00002 v 5.91 h 5.00002 v 6.24385 h -5.00002 v 5.91 h 5.00002 v 6.24385 h -5.00002 v 5.90999 h 5.00002 v 6.19885"
       inkscape:connector-curvature="0" />
    <path
       id="path309"
       inkscape:label="part"
       style="fill:none;stroke:#000000;stroke-width:1"
       d="m 315.36905,259.9881 h -6.28031 v -4.99999 h -5.91 v 4.99999 h -6.32528 v -4.99999 h -5.91 v 4.99999 h -6.32532 v -4.99999 h -5.91 v 4.99999 h -6.32528 v -4.99999 h -5.91 v 4.99999 h -6.32529 v -4.99999 h -5.91 v 4.99999 h -6.32528 v -4.99999 h -5.91003 v 4.99999 h -6.32529 v -4.99999 h -5.90999 v 4.99999 h -6.32529 v -4.99999 h -5.91 v 4.99999 h -6.32529 v -4.99999 h -5.91 v 4.99999 h -6.32528 v -4.99999 h -5.91003 v 4.99999 h -6.32529 v -4.99999 h -5.90999 v 4.99999 h -6.32529 v -4.99999 h -5.91001 v 4.99999 h -6.3253 v -4.99999 h -5.91 v 4.99999 h -6.32529 v -4.99999 h -5.91 v 4.99999 h -6.32529 v -4.99999 h -5.91 v 4.99999 h -6.3253 v -4.99999 h -5.91 v 4.99999 h -6.32529 v -4.99999 h -5.91 v 4.99999 h -6.3253 v -4.99999 h -5.909997 v 4.99999 h -6.32529 v -4.99999 h -5.91 v 4.99999 h -6.3253 v -4.99999 h -5.91 v 4.99999 h -6.32529 v -4.99999 h -5.91 v 4.99999 h -6.32529 v -4.99999 h -5.91 v 4.99999 h -6.3253 v -4.99999 h -5.91 v 4.99999 h -6.32529 v -4.99999 h -5.91 v 4.99999 h -6.3253 v -4.99999 H 9.5316826 v 4.99999 h -6.325289 v -4.99999 h -5.91 v 4.99999 h -6.325291 v -4.99999 h -5.9099996 v 4.99999 h -6.325299 v -4.99999 h -5.91 v 4.99999 h -6.325291 v -4.99999 h -5.91 v 4.99999 h -6.325299 v -4.99999 h -5.91 v 4.99999 h -6.325291 v -4.99999 h -5.910001 v 4.99999 h -6.325289 v -4.99999 h -5.91 v 4.99999 h -6.3253 v -4.99999 h -5.91 v 4.99999 h -6.28029"
       inkscape:connector-curvature="0" />
    <path
       id="path311"
       inkscape:label="part"
       style="fill:none;stroke:#000000;stroke-width:1"
       d="m -94.630957,259.9881 v -6.19885 h 5 v -5.90999 h -5 v -6.24385 h 5 v -5.91 h -5 v -6.24385 h 5 v -5.91 h -5 v -6.24385 h 5 v -5.90999 h -5 v -6.24385 h 5 v -5.91 h -5 v -6.24384 h 5 v -5.91 h -5 v -6.24385 h 5 v -5.91 h -5 v -6.24385 h 5 v -5.91 h -5 v -6.24384 h 5 v -5.91 h -5 v -6.24385 h 5 v -5.91 h -5 v -6.24384 h 5 v -5.91 h -5 v -6.24385 h 5 v -5.91 h -5 v -6.24385 h 5 v -5.91 h -5 v -6.243845 h 5 v -5.91 h -5 v -6.24385 h 5 v -5.91 h -5 v -6.24384 h 5 v -5.91 h -5 v -6.24385 h 5 v -5.91 h -5 v -6.24385 h 5 v -5.909998 h -5 v -6.243841 h 5 v -5.910001 h -5 v -6.243849 h 5 v -5.91 h -5 v -6.24385 h 5 V 4.8023262 h -5 v -6.243841 h 5 v -5.909998 h -5 v -6.2438522 h 5 v -5.910001 h -5 v -6.243839 h 5 v -5.91 h -5 v -6.24385 h 5 v -5.91 h -5 v -6.19885"
       inkscape:connector-curvature="0" />
  </g>
</svg>
