<?xml version="1.0" encoding="UTF-8" standalone="no"?>
<!-- Created with Inkscape (http://www.inkscape.org/) -->

<svg
   xmlns:dc="http://purl.org/dc/elements/1.1/"
   xmlns:cc="http://creativecommons.org/ns#"
   xmlns:rdf="http://www.w3.org/1999/02/22-rdf-syntax-ns#"
   xmlns:svg="http://www.w3.org/2000/svg"
   xmlns="http://www.w3.org/2000/svg"
   xmlns:sodipodi="http://sodipodi.sourceforge.net/DTD/sodipodi-0.dtd"
   xmlns:inkscape="http://www.inkscape.org/namespaces/inkscape"
   width="605mm"
   height="310mm"
   viewBox="0 0 605 310"
   version="1.1"
   id="svg20"
   inkscape:version="0.92.3 (2405546, 2018-03-11)"
   sodipodi:docname="400x400_planches.svg">
  <sodipodi:namedview
     id="base"
     pagecolor="#ffffff"
     bordercolor="#666666"
     borderopacity="1.0"
     inkscape:pageopacity="0.0"
     inkscape:pageshadow="2"
     inkscape:zoom="0.24748737"
     inkscape:cx="1072.5726"
     inkscape:cy="700.21736"
     inkscape:document-units="mm"
     inkscape:current-layer="layer1"
     showgrid="false"
     inkscape:window-width="1366"
     inkscape:window-height="705"
     inkscape:window-x="-8"
     inkscape:window-y="-8"
     inkscape:window-maximized="1"
     inkscape:measure-start="-335.371,953.584"
     inkscape:measure-end="0,0" />
  <defs
     id="defs14" />
  <metadata
     id="metadata17">
    <rdf:RDF>
      <cc:Work
         rdf:about="">
        <dc:format>image/svg+xml</dc:format>
        <dc:type
           rdf:resource="http://purl.org/dc/dcmitype/StillImage" />
        <dc:title></dc:title>
      </cc:Work>
    </rdf:RDF>
  </metadata>
  <g
     transform="translate(0,13)"
     id="layer1"
     inkscape:groupmode="layer"
     inkscape:label="Calque 1"
     style="display:inline">
    <path
       inkscape:connector-curvature="0"
       d="m 10.05,103.55211 h 8.86591 v -2.4 l -0.1,-0.1 0.1,-0.1 v -2.399997 h 17.73181 v 4.999997 h 17.73182 v -2.4 l -0.1,-0.1 0.1,-0.1 v -2.399997 h 17.73182 v 4.999997 h 17.73182 v -2.4 l -0.1,-0.1 0.1,-0.1 V 98.552113 H 107.575 v 4.999997 h 17.73182 v -2.4 l -0.1,-0.1 0.1,-0.1 v -2.399997 h 17.73182 v 4.999997 h 17.73181 v -2.4 l -0.1,-0.1 0.1,-0.1 v -2.399997 h 17.73182 v 4.999997 h 17.73182 v -2.4 l -0.1,-0.1 0.1,-0.1 v -2.399997 h 17.73182 v 4.999997 h 17.73182 v -2.4 l -0.1,-0.1 0.1,-0.1 v -2.399997 h 17.73181 v 4.999997 h 17.73182 v -2.4 l -0.1,-0.1 0.1,-0.1 v -2.399997 h 17.73182 v 4.999997 H 302.625 v -2.4 l -0.1,-0.1 0.1,-0.1 v -2.399997 h 17.73182 v 4.999997 h 17.73181 v -2.4 l -0.1,-0.1 0.1,-0.1 v -2.399997 h 17.73182 v 4.999997 h 17.73182 v -2.4 l -0.1,-0.1 0.1,-0.1 v -2.399997 h 17.73182 v 4.999997 H 400.15 v 8.86591 h 5 v 17.73182 h -2.4 l -0.1,0.1 -0.1,-0.1 h -2.4 v 17.73182 h 5 v 17.73181 h -2.4 l -0.1,0.1 -0.1,-0.1 h -2.4 v 17.73182 h 5 v 17.73182 h -2.4 l -0.1,0.1 -0.1,-0.1 h -2.4 v 17.73182 h 5 v 17.73182 h -2.4 l -0.1,0.1 -0.1,-0.1 h -2.4 v 17.73181 h 5 v 17.73182 h -2.4 l -0.1,0.1 -0.1,-0.1 h -2.4 v 17.73182 h 5 v 17.73182 h -2.4 l -0.1,0.1 -0.1,-0.1 h -2.4 v 17.73182 h 5 v 17.73181 h -2.4 l -0.1,0.1 -0.1,-0.1 h -2.4 v 17.73182 h 5 v 17.73182 h -2.4 l -0.1,0.1 -0.1,-0.1 h -2.4 v 17.73182 h 5 v 17.73182 h -2.4 l -0.1,0.1 -0.1,-0.1 h -2.4 v 17.73181 h 5 v 17.73182 h -2.4 l -0.1,0.1 -0.1,-0.1 h -2.4 v 17.73182 h 5 v 17.73182 h -2.4 l -0.1,0.1 -0.1,-0.1 h -2.4 v 8.86591 h -8.86591 v 5 h -17.73182 v -2.4 l -0.1,-0.1 0.1,-0.1 v -2.4 h -17.73182 v 5 h -17.73182 v -2.4 l -0.1,-0.1 0.1,-0.1 v -2.4 h -17.73181 v 5 H 302.625 v -2.4 l -0.1,-0.1 0.1,-0.1 v -2.4 h -17.73182 v 5 h -17.73182 v -2.4 l -0.1,-0.1 0.1,-0.1 v -2.4 h -17.73182 v 5 h -17.73181 v -2.4 l -0.1,-0.1 0.1,-0.1 v -2.4 h -17.73182 v 5 h -17.73182 v -2.4 l -0.1,-0.1 0.1,-0.1 v -2.4 h -17.73182 v 5 h -17.73182 v -2.4 l -0.1,-0.1 0.1,-0.1 v -2.4 h -17.73181 v 5 h -17.73182 v -2.4 l -0.1,-0.1 0.1,-0.1 v -2.4 H 107.575 v 5 H 89.84318 v -2.4 l -0.1,-0.1 0.1,-0.1 v -2.4 H 72.11136 v 5 H 54.37954 v -2.4 l -0.1,-0.1 0.1,-0.1 v -2.4 H 36.64772 v 5 H 18.91591 v -2.4 l -0.1,-0.1 0.1,-0.1 v -2.4 H 10.05 v -8.86591 h -2.4 l -0.1,0.1 -0.1,-0.1 h -2.4 v -17.73182 h 5 v -17.73182 h -2.4 l -0.1,0.1 -0.1,-0.1 h -2.4 v -17.73182 h 5 v -17.73181 h -2.4 l -0.1,0.1 -0.1,-0.1 h -2.4 v -17.73182 h 5 v -17.73182 h -2.4 l -0.1,0.1 -0.1,-0.1 h -2.4 v -17.73182 h 5 v -17.73182 h -2.4 l -0.1,0.1 -0.1,-0.1 h -2.4 v -17.73181 h 5 v -17.73182 h -2.4 l -0.1,0.1 -0.1,-0.1 H 5.05 V 289.7362 h 5 v -17.73182 h -2.4 l -0.1,0.1 -0.1,-0.1 h -2.4 v -17.73182 h 5 v -17.73181 h -2.4 l -0.1,0.1 -0.1,-0.1 h -2.4 v -17.73182 h 5 v -17.73182 h -2.4 l -0.1,0.1 -0.1,-0.1 h -2.4 v -17.73182 h 5 v -17.73182 h -2.4 l -0.1,0.1 -0.1,-0.1 h -2.4 v -17.73181 h 5 v -17.73182 h -2.4 l -0.1,0.1 -0.1,-0.1 h -2.4 v -17.73182 h 5 v -8.86591"
       id="box-lid"
       style="fill:none;stroke:#0000ff;stroke-width:0.1;stroke-linecap:butt;stroke-linejoin:miter" />
  </g>
  <g
     inkscape:groupmode="layer"
     id="layer3"
     inkscape:label="devant_dessin"
     sodipodi:insensitive="true">
    <path
       inkscape:connector-curvature="0"
       d="m 10.05,116.55211 h 8.86591 v -2.4 l -0.1,-0.1 0.1,-0.1 v -2.4 h 17.73181 v 5 h 17.73182 v -2.4 l -0.1,-0.1 0.1,-0.1 v -2.4 h 17.73182 v 5 h 17.73182 v -2.4 l -0.1,-0.1 0.1,-0.1 v -2.4 H 107.575 v 5 h 17.73182 v -2.4 l -0.1,-0.1 0.1,-0.1 v -2.4 h 17.73182 v 5 h 17.73181 v -2.4 l -0.1,-0.1 0.1,-0.1 v -2.4 h 17.73182 v 5 h 17.73182 v -2.4 l -0.1,-0.1 0.1,-0.1 v -2.4 h 17.73182 v 5 h 17.73182 v -2.4 l -0.1,-0.1 0.1,-0.1 v -2.4 h 17.73181 v 5 h 17.73182 v -2.4 l -0.1,-0.1 0.1,-0.1 v -2.4 h 17.73182 v 5 H 302.625 v -2.4 l -0.10001,-0.1 0.10001,-0.1 v -2.4 h 17.73182 v 5 h 17.73182 v -2.4 l -0.10001,-0.1 0.10001,-0.1 v -2.4 h 17.73182 v 5 h 17.73182 v -2.4 l -0.10001,-0.1 0.10001,-0.1 v -2.4 h 17.73182 v 5 h 8.8659 v 8.86591 h 5.00001 v 17.73182 H 402.75 l -0.1,0.1 -0.10001,-0.1 H 400.15 v 17.73182 h 5.00001 v 17.73181 H 402.75 l -0.1,0.1 -0.10001,-0.1 H 400.15 v 17.73182 h 5.00001 v 17.73182 H 402.75 l -0.1,0.1 -0.10001,-0.1 H 400.15 v 17.73182 h 5.00001 v 17.73182 H 402.75 l -0.1,0.1 -0.10001,-0.1 H 400.15 v 17.73181 h 5.00001 v 17.73182 H 402.75 l -0.1,0.1 -0.10001,-0.1 H 400.15 v 17.73182 h 5.00001 v 17.73182 H 402.75 l -0.1,0.10001 -0.10001,-0.10001 H 400.15 v 17.73183 h 5.00001 v 17.7318 H 402.75 l -0.1,0.10001 -0.10001,-0.10001 H 400.15 v 17.73183 h 5.00001 V 391.3953 H 402.75 l -0.1,0.1 -0.10001,-0.1 H 400.15 v 17.73182 h 5.00001 v 17.73182 H 402.75 l -0.1,0.1 -0.10001,-0.1 H 400.15 v 17.73182 h 5.00001 v 17.73182 H 402.75 l -0.1,0.1 -0.10001,-0.1 H 400.15 v 17.73182 h 5.00001 v 17.73182 H 402.75 l -0.1,0.1 -0.10001,-0.1 H 400.15 v 8.8659 h -8.8659 v 5.00001 h -17.73182 v -2.40001 l -0.10001,-0.10001 0.10001,-0.10001 v -2.39998 h -17.73182 v 5.00001 h -17.73182 v -2.40001 l -0.10001,-0.10001 0.10001,-0.10001 v -2.39998 h -17.73182 v 5.00001 H 302.625 v -2.40001 l -0.10001,-0.10001 0.10001,-0.10001 v -2.39998 h -17.73182 v 5.00001 h -17.73182 v -2.40001 l -0.1,-0.10001 0.1,-0.10001 v -2.39998 h -17.73182 v 5.00001 h -17.73181 v -2.40001 l -0.1,-0.10001 0.1,-0.10001 v -2.39998 h -17.73182 v 5.00001 h -17.73182 v -2.40001 l -0.1,-0.10001 0.1,-0.10001 v -2.39998 h -17.73182 v 5.00001 h -17.73182 v -2.40001 l -0.1,-0.10001 0.1,-0.10001 v -2.39998 h -17.73181 v 5.00001 h -17.73182 v -2.40001 l -0.1,-0.10001 0.1,-0.10001 v -2.39998 H 107.575 v 5.00001 H 89.84318 v -2.40001 l -0.1,-0.10001 0.1,-0.10001 v -2.39998 H 72.11136 v 5.00001 H 54.37954 v -2.40001 l -0.1,-0.10001 0.1,-0.10001 v -2.39998 H 36.64772 v 5.00001 H 18.91591 v -2.40001 l -0.1,-0.10001 0.1,-0.10001 v -2.39998 H 10.05 v -8.8659 h -2.4 l -0.1,0.1 -0.1,-0.1 H 5.05 V 480.0544 h 5 v -17.73182 h -2.4 l -0.1,0.1 -0.1,-0.1 h -2.4 v -17.73182 h 5 v -17.73182 h -2.4 l -0.1,0.1 -0.1,-0.1 h -2.4 v -17.73182 h 5 V 391.3953 h -2.4 l -0.1,0.1 -0.1,-0.1 h -2.4 v -17.73182 h 5 v -17.73183 h -2.4 l -0.1,0.10001 -0.1,-0.10001 h -2.4 v -17.7318 h 5 v -17.73183 h -2.4 l -0.1,0.10001 -0.1,-0.10001 H 5.05 V 302.7362 h 5 v -17.73182 h -2.4 l -0.1,0.1 -0.1,-0.1 h -2.4 v -17.73182 h 5 v -17.73181 h -2.4 l -0.1,0.1 -0.1,-0.1 h -2.4 v -17.73182 h 5 v -17.73182 h -2.4 l -0.1,0.1 -0.1,-0.1 h -2.4 v -17.73182 h 5 v -17.73182 h -2.4 l -0.1,0.1 -0.1,-0.1 h -2.4 v -17.73181 h 5 v -17.73182 h -2.4 l -0.1,0.1 -0.1,-0.1 h -2.4 v -17.73182 h 5 v -8.86591"
       id="box-lid-3"
       style="display:inline;fill:none;stroke:#0000ff;stroke-width:0.1;stroke-linecap:butt;stroke-linejoin:miter" />
    <rect
       style="fill:#ffffff;stroke-width:0.10397547;stroke-miterlimit:4;stroke-dasharray:none"
       id="rect99"
       width="210"
       height="185"
       x="25"
       y="129.27626" />
  </g>
</svg>
