<?xml version="1.0" encoding="UTF-8" standalone="no"?>
<!-- Created with Inkscape (http://www.inkscape.org/) -->

<svg
   xmlns:dc="http://purl.org/dc/elements/1.1/"
   xmlns:cc="http://creativecommons.org/ns#"
   xmlns:rdf="http://www.w3.org/1999/02/22-rdf-syntax-ns#"
   xmlns:svg="http://www.w3.org/2000/svg"
   xmlns="http://www.w3.org/2000/svg"
   xmlns:sodipodi="http://sodipodi.sourceforge.net/DTD/sodipodi-0.dtd"
   xmlns:inkscape="http://www.inkscape.org/namespaces/inkscape"
   width="605mm"
   height="310mm"
   viewBox="0 0 605 310"
   version="1.1"
   id="svg24"
   inkscape:version="0.92.3 (2405546, 2018-03-11)"
   sodipodi:docname="grandes_planches.svg">
  <sodipodi:namedview
     id="base"
     pagecolor="#ffffff"
     bordercolor="#666666"
     borderopacity="1.0"
     inkscape:pageopacity="0.0"
     inkscape:pageshadow="2"
     inkscape:zoom="0.175"
     inkscape:cx="1064.7031"
     inkscape:cy="1066.8681"
     inkscape:document-units="mm"
     inkscape:current-layer="layer2"
     showgrid="false"
     inkscape:window-width="1366"
     inkscape:window-height="705"
     inkscape:window-x="-8"
     inkscape:window-y="-8"
     inkscape:window-maximized="1"
     showguides="false" />
  <defs
     id="defs18" />
  <metadata
     id="metadata21">
    <rdf:RDF>
      <cc:Work
         rdf:about="">
        <dc:format>image/svg+xml</dc:format>
        <dc:type
           rdf:resource="http://purl.org/dc/dcmitype/StillImage" />
        <dc:title></dc:title>
      </cc:Work>
    </rdf:RDF>
  </metadata>
  <g
     transform="translate(0,13)"
     id="layer1"
     inkscape:groupmode="layer"
     inkscape:label="Calque 1"
     style="display:inline">
    <path
       inkscape:connector-curvature="0"
       d="m 6.05,100.85 h 8.865909 v -2.4 l -0.1,-0.1 0.1,-0.1 v -2.4 h 17.731818 v 5 h 17.731818 v -2.4 l -0.1,-0.1 0.1,-0.1 v -2.4 h 17.731818 v 5 h 17.731818 v -2.4 l -0.1,-0.1 0.1,-0.1 v -2.4 H 103.575 v 5 h 17.73182 v -2.4 l -0.1,-0.1 0.1,-0.1 v -2.4 h 17.73182 v 5 h 17.73181 v -2.4 l -0.1,-0.1 0.1,-0.1 v -2.4 h 17.73182 v 5 h 17.73182 v -2.4 l -0.1,-0.1 0.1,-0.1 v -2.4 h 17.73182 v 5 h 17.73182 v -2.4 l -0.1,-0.1 0.1,-0.1 v -2.4 h 17.73181 v 5 h 17.73182 v -2.4 l -0.1,-0.1 0.1,-0.1 v -2.4 h 17.73182 v 5 H 298.625 v -2.4 l -0.1,-0.1 0.1,-0.1 v -2.4 h 17.73182 v 5 h 17.73181 v -2.4 l -0.1,-0.1 0.1,-0.1 v -2.4 h 17.73182 v 5 h 17.73182 v -2.4 l -0.1,-0.1 0.1,-0.1 v -2.4 h 17.73182 v 5 H 396.15 v 4.32045 h 5 v 8.64091 h -2.4 l -0.1,0.1 -0.1,-0.1 h -2.4 v 8.64091 h 5 v 8.64091 h -2.4 l -0.1,0.1 -0.1,-0.1 h -2.4 v 8.64091 h 5 v 8.64091 h -2.4 l -0.1,0.1 -0.1,-0.1 h -2.4 v 8.64091 h 5 v 8.64091 h -2.4 l -0.1,0.1 -0.1,-0.1 h -2.4 v 8.64091 h 5 v 8.64091 h -2.4 l -0.1,0.1 -0.1,-0.1 h -2.4 v 8.64091 h 5 v 8.6409 h -2.4 l -0.1,0.1 -0.1,-0.1 h -2.4 v 8.64091 h 5 v 8.64091 h -2.4 l -0.1,0.1 -0.1,-0.1 h -2.4 v 8.64091 h 5 v 8.64091 h -2.4 l -0.1,0.1 -0.1,-0.1 h -2.4 v 8.64091 h 5 v 8.64091 h -2.4 l -0.1,0.1 -0.1,-0.1 h -2.4 v 8.64091 h 5 v 8.64091 h -2.4 l -0.1,0.1 -0.1,-0.1 h -2.4 v 8.64091 h 5 v 8.6409 h -2.4 l -0.1,0.1 -0.1,-0.1 h -2.4 V 290.95 h -8.86591 v 5 h -17.73182 v -2.4 l -0.1,-0.1 0.1,-0.1 v -2.4 h -17.73182 v 5 h -17.73182 v -2.4 l -0.1,-0.1 0.1,-0.1 v -2.4 h -17.73181 v 5 H 298.625 v -2.4 l -0.1,-0.1 0.1,-0.1 v -2.4 h -17.73182 v 5 h -17.73182 v -2.4 l -0.1,-0.1 0.1,-0.1 v -2.4 h -17.73182 v 5 h -17.73181 v -2.4 l -0.1,-0.1 0.1,-0.1 v -2.4 h -17.73182 v 5 h -17.73182 v -2.4 l -0.1,-0.1 0.1,-0.1 v -2.4 h -17.73182 v 5 h -17.73182 v -2.4 l -0.1,-0.1 0.1,-0.1 v -2.4 h -17.73181 v 5 h -17.73182 v -2.4 l -0.1,-0.1 0.1,-0.1 v -2.4 H 103.575 v 5 H 85.843181 v -2.4 l -0.1,-0.1 0.1,-0.1 v -2.4 H 68.111363 v 5 H 50.379545 v -2.4 l -0.1,-0.1 0.1,-0.1 v -2.4 H 32.647727 v 5 H 14.915909 v -2.4 l -0.1,-0.1 0.1,-0.1 v -2.4 H 6.05 v -4.32046 h -2.4 l -0.1,0.1 -0.1,-0.1 h -2.4 v -8.6409 h 5 v -8.64091 h -2.4 l -0.1,0.1 -0.1,-0.1 h -2.4 v -8.64091 h 5 v -8.64091 h -2.4 l -0.1,0.1 -0.1,-0.1 H 1.05 V 243.425 h 5 v -8.64091 h -2.4 l -0.1,0.1 -0.1,-0.1 h -2.4 v -8.64091 h 5 v -8.64091 h -2.4 l -0.1,0.1 -0.1,-0.1 h -2.4 v -8.64091 h 5 v -8.64091 h -2.4 l -0.1,0.1 -0.1,-0.1 h -2.4 v -8.6409 h 5 v -8.64091 h -2.4 l -0.1,0.1 -0.1,-0.1 h -2.4 v -8.64091 h 5 v -8.64091 h -2.4 l -0.1,0.1 -0.1,-0.1 h -2.4 v -8.64091 h 5 V 148.375 h -2.4 l -0.1,0.1 -0.1,-0.1 h -2.4 v -8.64091 h 5 v -8.64091 h -2.4 l -0.1,0.1 -0.1,-0.1 h -2.4 v -8.64091 h 5 v -8.64091 h -2.4 l -0.1,0.1 -0.1,-0.1 h -2.4 v -8.64091 h 5 V 100.85"
       id="box-base"
       style="fill:none;stroke:#0000ff;stroke-width:0.1;stroke-linecap:butt;stroke-linejoin:miter" />
  </g>
  <g
     inkscape:groupmode="layer"
     id="layer2"
     inkscape:label="Calque 2">
    <path
       inkscape:connector-curvature="0"
       d="m 6.05,113.85 v -5 h 8.86591 v 5 h 17.73182 v -2.4 l -0.1,-0.1 0.1,-0.1 v -2.4 h 17.73182 v 5 h 17.73182 v -2.4 l -0.1,-0.1 0.1,-0.1 v -2.4 h 17.73181 v 5 H 103.575 v -2.4 l -0.1,-0.1 0.1,-0.1 v -2.4 h 17.73182 v 5 h 17.73182 v -2.4 l -0.1,-0.1 0.1,-0.1 v -2.4 h 17.73181 v 5 h 17.73182 v -2.4 l -0.1,-0.1 0.1,-0.1 v -2.4 h 17.73182 v 5 h 17.73182 v -2.4 l -0.1,-0.1 0.1,-0.1 v -2.4 h 17.73182 v 5 h 17.73181 v -2.4 l -0.1,-0.1 0.1,-0.1 v -2.4 h 17.73182 v 5 h 17.73182 v -2.4 l -0.10001,-0.1 0.10001,-0.1 v -2.4 H 298.625 v 5 h 17.73182 v -2.4 l -0.1,-0.1 0.1,-0.1 v -2.4 h 17.73182 v 5 h 17.73182 v -2.4 l -0.10001,-0.1 0.10001,-0.1 v -2.4 h 17.73182 v 5 h 17.73182 v -2.4 l -0.10001,-0.1 0.10001,-0.1 v -2.4 h 8.8659 v 5 h 5.00001 v 7.92083 H 398.75 l -0.1,0.1 -0.10001,-0.1 H 396.15 v 15.84167 h 5.00001 v 15.84167 H 398.75 l -0.1,0.1 -0.10001,-0.1 H 396.15 v 15.84166 h 5.00001 V 185.1375 H 398.75 l -0.1,0.1 -0.10001,-0.1 H 396.15 v 15.84167 h 5.00001 v 15.84166 H 398.75 l -0.1,0.1 -0.10001,-0.1 H 396.15 v 15.84167 h 5.00001 v 15.84167 H 398.75 l -0.1,0.1 -0.10001,-0.1 H 396.15 v 15.84166 h 5.00001 V 280.1875 H 398.75 l -0.1,0.1 -0.10001,-0.1 H 396.15 v 15.84167 h 5.00001 V 303.95 H 396.15 v 5 h -8.8659 v -2.4 l -0.10001,-0.1 0.10001,-0.1 v -2.4 h -17.73182 v 5 h -17.73182 v -2.4 l -0.10001,-0.1 0.10001,-0.1 v -2.4 h -17.73182 v 5 h -17.73182 v -2.4 l -0.1,-0.1 0.1,-0.1 v -2.4 H 298.625 v 5 h -17.73182 v -2.4 l -0.10001,-0.1 0.10001,-0.1 v -2.4 h -17.73182 v 5 h -17.73182 v -2.4 l -0.1,-0.1 0.1,-0.1 v -2.4 h -17.73181 v 5 h -17.73182 v -2.4 l -0.1,-0.1 0.1,-0.1 v -2.4 h -17.73182 v 5 h -17.73182 v -2.4 l -0.1,-0.1 0.1,-0.1 v -2.4 h -17.73182 v 5 h -17.73181 v -2.4 l -0.1,-0.1 0.1,-0.1 v -2.4 h -17.73182 v 5 H 103.575 v -2.4 l -0.1,-0.1 0.1,-0.1 v -2.4 H 85.84318 v 5 H 68.11137 v -2.4 l -0.1,-0.1 0.1,-0.1 v -2.4 H 50.37955 v 5 H 32.64773 v -2.4 l -0.1,-0.1 0.1,-0.1 v -2.4 H 14.91591 v 5 H 6.05 v -5 h -5 v -7.92083 h 5 V 280.1875 h -2.4 l -0.1,0.1 -0.1,-0.1 h -2.4 v -15.84167 h 5 v -15.84166 h -2.4 l -0.1,0.1 -0.1,-0.1 H 1.05 V 232.6625 h 5 v -15.84167 h -2.4 l -0.1,0.1 -0.1,-0.1 h -2.4 v -15.84166 h 5 V 185.1375 h -2.4 l -0.1,0.1 -0.1,-0.1 h -2.4 v -15.84167 h 5 v -15.84166 h -2.4 l -0.1,0.1 -0.1,-0.1 H 1.05 V 137.6125 h 5 v -15.84167 h -2.4 l -0.1,0.1 -0.1,-0.1 H 1.05 V 113.85 h 5"
       id="box-longside1-2"
       style="display:inline;fill:none;stroke:#0000ff;stroke-width:0.1;stroke-linecap:butt;stroke-linejoin:miter" />
  </g>
  <g
     inkscape:groupmode="layer"
     id="layer3"
     inkscape:label="Calque 3">
    <path
       inkscape:connector-curvature="0"
       d="m 6.05,113.85 h 8.865909 v -2.4 l -0.1,-0.1 0.1,-0.1 v -2.4 h 17.731819 v 5 h 17.731817 v -2.4 l -0.1,-0.1 0.1,-0.1 v -2.4 h 17.731819 v 5 h 17.731817 v -2.4 l -0.1,-0.1 0.1,-0.1 v -2.4 H 103.575 v 5 h 17.73182 v -2.4 l -0.1,-0.1 0.1,-0.1 v -2.4 h 17.73182 v 5 h 17.73181 v -2.4 l -0.1,-0.1 0.1,-0.1 v -2.4 h 17.73182 v 5 h 17.73182 v -2.4 l -0.1,-0.1 0.1,-0.1 v -2.4 h 17.73182 v 5 h 17.73182 v -2.4 l -0.1,-0.1 0.1,-0.1 v -2.4 h 17.73181 v 5 h 17.73182 v -2.4 l -0.1,-0.1 0.1,-0.1 v -2.4 h 17.73182 v 5 H 298.625 v -2.4 l -0.10001,-0.1 0.10001,-0.1 v -2.4 h 17.73182 v 5 h 17.73182 v -2.4 l -0.10001,-0.1 0.10001,-0.1 v -2.4 h 17.73182 v 5 h 17.73182 v -2.4 l -0.10001,-0.1 0.10001,-0.1 v -2.4 h 17.73182 v 5 h 8.8659 v 4.32045 h 5.00001 v 8.64091 H 398.75 l -0.1,0.1 -0.10001,-0.1 H 396.15 v 8.64091 h 5.00001 v 8.64091 H 398.75 l -0.1,0.1 -0.10001,-0.1 H 396.15 v 8.64091 h 5.00001 V 161.375 H 398.75 l -0.1,0.1 -0.1,-0.1 h -2.4 v 8.64091 h 5.00001 v 8.64091 H 398.75 l -0.1,0.1 -0.10001,-0.1 H 396.15 v 8.64091 h 5.00001 v 8.64091 H 398.75 l -0.1,0.1 -0.10001,-0.1 H 396.15 v 8.6409 h 5.00001 v 8.64091 H 398.75 l -0.1,0.1 -0.10001,-0.1 H 396.15 v 8.64091 h 5.00001 v 8.64091 H 398.75 l -0.1,0.1 -0.10001,-0.1 H 396.15 v 8.64091 h 5.00001 v 8.64091 H 398.75 l -0.1,0.1 -0.10001,-0.1 H 396.15 v 8.64091 h 5.00001 v 8.64091 H 398.75 l -0.1,0.1 -0.10001,-0.1 H 396.15 v 8.64091 h 5.00001 v 8.64091 H 398.75 l -0.1,0.1 -0.10001,-0.1 H 396.15 v 8.64091 h 5.00001 v 8.6409 H 398.75 l -0.1,0.1 -0.10001,-0.1 H 396.15 V 303.95 h -8.8659 v 5 h -17.73182 v -2.4 l -0.10001,-0.1 0.10001,-0.1 v -2.4 h -17.73182 v 5 h -17.73182 v -2.4 l -0.10001,-0.1 0.10001,-0.1 v -2.4 h -17.73182 v 5 H 298.625 v -2.4 l -0.10001,-0.1 0.10001,-0.1 v -2.4 h -17.73182 v 5 h -17.73182 v -2.4 l -0.1,-0.1 0.1,-0.1 v -2.4 h -17.73182 v 5 h -17.73181 v -2.4 l -0.1,-0.1 0.1,-0.1 v -2.4 h -17.73182 v 5 h -17.73182 v -2.4 l -0.1,-0.1 0.1,-0.1 v -2.4 h -17.73182 v 5 h -17.73182 v -2.4 l -0.1,-0.1 0.1,-0.1 v -2.4 h -17.73181 v 5 h -17.73182 v -2.4 l -0.1,-0.1 0.1,-0.1 v -2.4 H 103.575 v 5 H 85.843181 v -2.4 l -0.1,-0.1 0.1,-0.1 v -2.4 H 68.111364 v 5 H 50.379545 v -2.4 l -0.1,-0.1 0.1,-0.1 v -2.4 H 32.647728 v 5 H 14.915909 v -2.4 l -0.1,-0.1 0.1,-0.1 v -2.4 H 6.05 v -4.32046 h -2.4 l -0.1,0.1 -0.1,-0.1 h -2.4 v -8.6409 h 5 v -8.64091 h -2.4 l -0.1,0.1 -0.1,-0.1 h -2.4 v -8.64091 h 5 v -8.64091 h -2.4 l -0.1,0.1 -0.1,-0.1 H 1.05 V 256.425 h 5 v -8.64091 h -2.4 l -0.1,0.1 -0.1,-0.1 h -2.4 v -8.64091 h 5 v -8.64091 h -2.4 l -0.1,0.1 -0.1,-0.1 h -2.4 v -8.64091 h 5 v -8.64091 h -2.4 l -0.1,0.1 -0.1,-0.1 h -2.4 v -8.64091 h 5 v -8.6409 h -2.4 l -0.1,0.1 -0.1,-0.1 h -2.4 v -8.64091 h 5 v -8.64091 h -2.4 l -0.1,0.1 -0.1,-0.1 h -2.4 v -8.64091 h 5 V 161.375 h -2.4 l -0.1,0.1 -0.1,-0.1 h -2.4 v -8.64091 h 5 v -8.64091 h -2.4 l -0.1,0.1 -0.1,-0.1 h -2.4 v -8.64091 h 5 v -8.64091 h -2.4 l -0.1,0.1 -0.1,-0.1 h -2.4 v -8.64091 h 5 V 113.85"
       id="box-lid-7"
       style="display:inline;fill:none;stroke:#0000ff;stroke-width:0.1;stroke-linecap:butt;stroke-linejoin:miter" />
  </g>
  <g
     inkscape:groupmode="layer"
     id="layer4"
     inkscape:label="Calque 4"
     style="display:none">
    <path
       inkscape:connector-curvature="0"
       d="m 6.05,113.85 v -5 h 8.86591 v 5 h 17.73182 v -2.4 l -0.1,-0.1 0.1,-0.1 v -2.4 h 17.73182 v 5 h 17.731823 v -2.4 l -0.1,-0.1 0.1,-0.1 v -2.4 h 17.73181 v 5 H 103.575 v -2.4 l -0.1,-0.1 0.1,-0.1 v -2.4 h 17.73182 v 5 h 17.73182 v -2.4 l -0.1,-0.1 0.1,-0.1 v -2.4 h 17.73181 v 5 h 17.73182 v -2.4 l -0.1,-0.1 0.1,-0.1 v -2.4 h 17.73182 v 5 h 17.73182 v -2.4 l -0.1,-0.1 0.1,-0.1 v -2.4 h 17.73182 v 5 h 17.73181 v -2.4 l -0.1,-0.1 0.1,-0.1 v -2.4 h 17.73182 v 5 h 17.73182 v -2.4 l -0.10001,-0.1 0.10001,-0.1 v -2.4 H 298.625 v 5 h 17.73182 v -2.4 l -0.1,-0.1 0.1,-0.1 v -2.4 h 17.73182 v 5 h 17.73182 v -2.4 l -0.10001,-0.1 0.10001,-0.1 v -2.4 h 17.73182 v 5 h 17.73182 v -2.4 l -0.10001,-0.1 0.10001,-0.1 v -2.4 h 8.8659 v 5 h 5.00001 v 7.92083 H 398.75 l -0.1,0.1 -0.10001,-0.1 H 396.15 v 15.84167 h 5.00001 v 15.84167 H 398.75 l -0.1,0.1 -0.10001,-0.1 H 396.15 v 15.84166 h 5.00001 V 185.1375 H 398.75 l -0.1,0.1 -0.10001,-0.1 H 396.15 v 15.84168 h 5.00001 v 15.84165 H 398.75 l -0.1,0.1 -0.10001,-0.1 H 396.15 v 15.84167 h 5.00001 v 15.84167 H 398.75 l -0.1,0.1 -0.10001,-0.1 H 396.15 v 15.84166 h 5.00001 V 280.1875 H 398.75 l -0.1,0.1 -0.10001,-0.1 H 396.15 v 15.84167 h 5.00001 V 303.95 H 396.15 v 5 h -8.8659 v -2.4 l -0.10001,-0.1 0.10001,-0.1 v -2.4 h -17.73182 v 5 h -17.73182 v -2.4 l -0.10001,-0.1 0.10001,-0.1 v -2.4 h -17.73182 v 5 h -17.73182 v -2.4 l -0.1,-0.1 0.1,-0.1 v -2.4 H 298.625 v 5 h -17.73182 v -2.4 l -0.10001,-0.1 0.10001,-0.1 v -2.4 h -17.73182 v 5 h -17.73182 v -2.4 l -0.1,-0.1 0.1,-0.1 v -2.4 h -17.73181 v 5 h -17.73182 v -2.4 l -0.1,-0.1 0.1,-0.1 v -2.4 h -17.73182 v 5 h -17.73182 v -2.4 l -0.1,-0.1 0.1,-0.1 v -2.4 h -17.73182 v 5 h -17.73181 v -2.4 l -0.1,-0.1 0.1,-0.1 v -2.4 h -17.73182 v 5 H 103.575 v -2.4 l -0.1,-0.1 0.1,-0.1 v -2.4 H 85.843183 v 5 h -17.73181 v -2.4 l -0.1,-0.1 0.1,-0.1 v -2.4 H 50.37955 v 5 H 32.64773 v -2.4 l -0.1,-0.1 0.1,-0.1 v -2.4 H 14.91591 v 5 H 6.05 v -5 h -5 v -7.92083 h 5 V 280.1875 h -2.4 l -0.1,0.1 -0.1,-0.1 h -2.4 v -15.84167 h 5 v -15.84166 h -2.4 l -0.1,0.1 -0.1,-0.1 H 1.05 V 232.6625 h 5 v -15.84167 h -2.4 l -0.1,0.1 -0.1,-0.1 h -2.4 v -15.84165 h 5 V 185.1375 h -2.4 l -0.1,0.1 -0.1,-0.1 h -2.4 v -15.84167 h 5 v -15.84166 h -2.4 l -0.1,0.1 -0.1,-0.1 H 1.05 V 137.6125 h 5 v -15.84167 h -2.4 l -0.1,0.1 -0.1,-0.1 H 1.05 V 113.85 h 5"
       id="box-longside2-0"
       style="fill:none;stroke:#0000ff;stroke-width:0.1;stroke-linecap:butt;stroke-linejoin:miter" />
  </g>
  <g
     transform="translate(0,13)"
     id="g110"
     inkscape:groupmode="layer"
     inkscape:label="newlayer" />
</svg>
