<?xml version="1.0" encoding="UTF-8" standalone="no"?>
<!-- Created with Inkscape (http://www.inkscape.org/) -->

<svg
   xmlns:dc="http://purl.org/dc/elements/1.1/"
   xmlns:cc="http://creativecommons.org/ns#"
   xmlns:rdf="http://www.w3.org/1999/02/22-rdf-syntax-ns#"
   xmlns:svg="http://www.w3.org/2000/svg"
   xmlns="http://www.w3.org/2000/svg"
   xmlns:sodipodi="http://sodipodi.sourceforge.net/DTD/sodipodi-0.dtd"
   xmlns:inkscape="http://www.inkscape.org/namespaces/inkscape"
   width="610mm"
   height="305mm"
   viewBox="0 0 610 305"
   version="1.1"
   id="svg195"
   inkscape:version="0.92.3 (2405546, 2018-03-11)"
   sodipodi:docname="lasercut_projet.svg">
  <sodipodi:namedview
     id="base"
     pagecolor="#ffffff"
     bordercolor="#666666"
     borderopacity="1.0"
     inkscape:pageopacity="0.0"
     inkscape:pageshadow="2"
     inkscape:zoom="0.24748737"
     inkscape:cx="664.67911"
     inkscape:cy="762.50872"
     inkscape:document-units="mm"
     inkscape:current-layer="layer1"
     showgrid="false"
     inkscape:window-width="1366"
     inkscape:window-height="705"
     inkscape:window-x="-8"
     inkscape:window-y="-8"
     inkscape:window-maximized="1" />
  <defs
     id="defs189" />
  <metadata
     id="metadata192">
    <rdf:RDF>
      <cc:Work
         rdf:about="">
        <dc:format>image/svg+xml</dc:format>
        <dc:type
           rdf:resource="http://purl.org/dc/dcmitype/StillImage" />
        <dc:title></dc:title>
      </cc:Work>
    </rdf:RDF>
  </metadata>
  <g
     id="layer1"
     inkscape:groupmode="layer"
     inkscape:label="Calque 1"
     transform="translate(0,8)">
    <path
       inkscape:connector-curvature="0"
       d="m -284.78752,-895.07305 h 9.09318 v -2.4 l -0.1,-0.1 0.1,-0.1 v -2.4 h 18.18637 v 5 h 18.18636 v -2.4 l -0.1,-0.1 0.1,-0.1 v -2.4 h 18.18636 v 5 h 18.18637 v -2.4 l -0.1,-0.1 0.1,-0.1 v -2.4 h 18.18636 v 5 h 18.18636 v -2.4 l -0.1,-0.1 0.1,-0.1 v -2.4 h 18.18637 v 5 h 18.18636 v -2.4 l -0.1,-0.1 0.1,-0.1 v -2.4 h 18.18637 v 5 h 18.18636 v -2.4 l -0.1,-0.1 0.1,-0.1 v -2.4 h 18.18636 v 5 h 18.18637 v -2.4 l -0.1,-0.1 0.1,-0.1 v -2.4 h 18.18636 v 5 h 18.18637 v -2.4 l -0.1,-0.1 0.1,-0.1 v -2.4 h 18.18636 v 5 h 18.18636 v -2.4 l -0.1,-0.1 0.1,-0.1 v -2.4 h 18.18637 v 5 h 18.18636 v -2.4 l -0.1,-0.1 0.1,-0.1 v -2.4 h 18.18636 v 5 h 18.18637 v -2.4 l -0.1,-0.1 0.1,-0.1 v -2.4 h 18.18636 v 5 h 9.09318 v 9.09318 h 5 v 18.18637 h -2.4 l -0.1,0.1 -0.1,-0.1 h -2.4 v 18.18636 h 5 v 18.18636 h -2.4 l -0.1,0.1 -0.1,-0.1 h -2.4 v 18.18637 h 5 v 18.18636 h -2.4 l -0.1,0.1 -0.1,-0.1 h -2.4 v 18.18636 h 5 v 18.18637 h -2.4 l -0.1,0.1 -0.1,-0.1 h -2.4 v 18.18636 h 5 v 18.18637 h -2.4 l -0.1,0.1 -0.1,-0.1 h -2.4 v 18.18636 h 5 v 18.18636 h -2.4 l -0.1,0.1 -0.1,-0.1 h -2.4 v 18.18637 h 5 v 18.18636 h -2.4 l -0.1,0.1 -0.1,-0.1 h -2.4 v 18.18637 h 5 v 18.18636 h -2.4 l -0.1,0.1 -0.1,-0.1 h -2.4 v 18.18636 h 5 v 18.18637 h -2.4 l -0.1,0.1 -0.1,-0.1 h -2.4 v 18.18636 h 5 v 18.18636 h -2.4 l -0.1,0.1 -0.1,-0.1 h -2.4 v 18.18637 h 5 v 18.18636 h -2.4 l -0.1,0.1 -0.1,-0.1 h -2.4 v 9.09318 h -9.09318 v 5 H 88.03294 v -2.4 l -0.1,-0.1 0.1,-0.1 v -2.4 H 69.84657 v 5 H 51.66021 v -2.4 l -0.1,-0.1 0.1,-0.1 v -2.4 H 33.47385 v 5 H 15.28748 v -2.4 l -0.1,-0.1 0.1,-0.1 v -2.4 H -2.89888 v 5 h -18.18636 v -2.4 l -0.1,-0.1 0.1,-0.1 v -2.4 h -18.18637 v 5 h -18.18636 v -2.4 l -0.1,-0.1 0.1,-0.1 v -2.4 h -18.18637 v 5 H -93.8307 v -2.4 l -0.1,-0.1 0.1,-0.1 v -2.4 h -18.18636 v 5 h -18.18637 v -2.4 l -0.1,-0.1 0.1,-0.1 v -2.4 h -18.18636 v 5 h -18.18637 v -2.4 l -0.1,-0.1 0.1,-0.1 v -2.4 h -18.18636 v 5 h -18.18636 v -2.4 l -0.1,-0.1 0.1,-0.1 v -2.4 h -18.18637 v 5 h -18.18636 v -2.4 l -0.1,-0.1 0.1,-0.1 v -2.4 h -18.18636 v 5 h -18.18637 v -2.4 l -0.1,-0.1 0.1,-0.1 v -2.4 h -9.09318 v -9.09318 h -2.4 l -0.1,0.1 -0.1,-0.1 h -2.4 v -18.18636 h 5 v -18.18637 h -2.4 l -0.1,0.1 -0.1,-0.1 h -2.4 v -18.18636 h 5 v -18.18636 h -2.4 l -0.1,0.1 -0.1,-0.1 h -2.4 v -18.18637 h 5 v -18.18636 h -2.4 l -0.1,0.1 -0.1,-0.1 h -2.4 v -18.18636 h 5 v -18.18637 h -2.4 l -0.1,0.1 -0.1,-0.1 h -2.4 v -18.18636 h 5 v -18.18637 h -2.4 l -0.1,0.1 -0.1,-0.1 h -2.4 v -18.18636 h 5 v -18.18636 h -2.4 l -0.1,0.1 -0.1,-0.1 h -2.4 v -18.18637 h 5 v -18.18636 h -2.4 l -0.1,0.1 -0.1,-0.1 h -2.4 v -18.18637 h 5 v -18.18636 h -2.4 l -0.1,0.1 -0.1,-0.1 h -2.4 v -18.18636 h 5 v -18.18637 h -2.4 l -0.1,0.1 -0.1,-0.1 h -2.4 v -18.18636 h 5 v -18.18636 h -2.4 l -0.1,0.1 -0.1,-0.1 h -2.4 v -18.18637 h 5 v -9.09318"
       id="box-lid"
       style="fill:none;stroke:#0000ff;stroke-width:0.1;stroke-linecap:butt;stroke-linejoin:miter" />
    <path
       inkscape:connector-curvature="0"
       d="m -289.78752,-479.97305 v -5 h 14.09318 v 5 h 18.18637 v -2.4 l -0.1,-0.1 0.1,-0.1 v -2.4 h 18.18636 v 5 h 18.18636 v -2.4 l -0.1,-0.1 0.1,-0.1 v -2.4 h 18.18637 v 5 h 18.18636 v -2.4 l -0.1,-0.1 0.1,-0.1 v -2.4 h 18.18636 v 5 h 18.18637 v -2.4 l -0.1,-0.1 0.1,-0.1 v -2.4 h 18.18636 v 5 h 18.18637 v -2.4 l -0.1,-0.1 0.1,-0.1 v -2.4 h 18.18636 v 5 h 18.18636 v -2.4 l -0.1,-0.1 0.1,-0.1 v -2.4 h 18.18637 v 5 h 18.18636 v -2.4 l -0.1,-0.1 0.1,-0.1 v -2.4 h 18.18637 v 5 h 18.18636 v -2.4 l -0.1,-0.1 0.1,-0.1 v -2.4 h 18.18636 v 5 h 18.18637 v -2.4 l -0.1,-0.1 0.1,-0.1 v -2.4 h 18.18636 v 5 h 18.18636 v -2.4 l -0.1,-0.1 0.1,-0.1 v -2.4 h 18.18637 v 5 h 18.18636 v -2.4 l -0.1,-0.1 0.1,-0.1 v -2.4 h 14.09318 v 17.50417 h -2.4 l -0.1,0.1 -0.1,-0.1 h -2.4 v 25.00833 h 5 v 25.00833 h -2.4 l -0.1,0.1 -0.1,-0.1 h -2.4 v 25.00834 h 5 v 25.00833 h -2.4 l -0.1,0.1 -0.1,-0.1 h -2.4 v 25.00833 h 5 v 25.00834 h -2.4 l -0.1,0.1 -0.1,-0.1 h -2.4 v 25.00833 h 5 v 25.00833 h -2.4 l -0.1,0.1 -0.1,-0.1 h -2.4 v 25.00834 h 5 v 25.00833 h -2.4 l -0.1,0.1 -0.1,-0.1 h -2.4 v 25.00833 h 5 v 17.50417 H 106.2193 v -2.4 l -0.1,-0.1 0.1,-0.1 v -2.4 H 88.03294 v 5 H 69.84657 v -2.4 l -0.1,-0.1 0.1,-0.1 v -2.4 H 51.66021 v 5 H 33.47385 v -2.4 l -0.1,-0.1 0.1,-0.1 v -2.4 H 15.28748 v 5 H -2.89888 v -2.4 l -0.1,-0.1 0.1,-0.1 v -2.4 h -18.18636 v 5 h -18.18637 v -2.4 l -0.1,-0.1 0.1,-0.1 v -2.4 h -18.18636 v 5 h -18.18637 v -2.4 l -0.1,-0.1 0.1,-0.1 v -2.4 H -93.8307 v 5 h -18.18636 v -2.4 l -0.1,-0.1 0.1,-0.1 v -2.4 h -18.18637 v 5 h -18.18636 v -2.4 l -0.1,-0.1 0.1,-0.1 v -2.4 h -18.18637 v 5 h -18.18636 v -2.4 l -0.1,-0.1 0.1,-0.1 v -2.4 h -18.18636 v 5 h -18.18637 v -2.4 l -0.1,-0.1 0.1,-0.1 v -2.4 h -18.18636 v 5 h -18.18636 v -2.4 l -0.1,-0.1 0.1,-0.1 v -2.4 h -18.18637 v 5 h -14.09318 v -17.50417 h 5 v -25.00833 h -2.4 l -0.1,0.1 -0.1,-0.1 h -2.4 v -25.00833 h 5 v -25.00834 h -2.4 l -0.1,0.1 -0.1,-0.1 h -2.4 v -25.00833 h 5 v -25.00833 h -2.4 l -0.1,0.1 -0.1,-0.1 h -2.4 v -25.00834 h 5 v -25.00833 h -2.4 l -0.1,0.1 -0.1,-0.1 h -2.4 v -25.00833 h 5 v -25.00834 h -2.4 l -0.1,0.1 -0.1,-0.1 h -2.4 v -25.00833 h 5 v -25.00833 h -2.4 l -0.1,0.1 -0.1,-0.1 h -2.4 v -12.50417"
       id="box-longside1"
       style="fill:none;stroke:#0000ff;stroke-width:0.1;stroke-linecap:butt;stroke-linejoin:miter" />
    <path
       inkscape:connector-curvature="0"
       d="m -284.78752,-164.87305 h 9.09318 v -2.4 l -0.1,-0.1 0.1,-0.1 v -2.4 h 18.18637 v 5 h 18.18636 v -2.4 l -0.1,-0.1 0.1,-0.1 v -2.4 h 18.18636 v 5 h 18.18637 v -2.4 l -0.1,-0.1 0.1,-0.1 v -2.4 h 18.18636 v 5 h 18.18636 v -2.4 l -0.1,-0.1 0.1,-0.1 v -2.4 h 18.18637 v 5 h 18.18636 v -2.4 l -0.1,-0.1 0.1,-0.1 v -2.4 h 18.18637 v 5 h 18.18636 v -2.4 l -0.1,-0.1 0.1,-0.1 v -2.4 h 18.18636 v 5 h 18.18637 v -2.4 l -0.1,-0.1 0.1,-0.1 v -2.4 h 18.18636 v 5 h 18.18637 v -2.4 l -0.1,-0.1 0.1,-0.1 v -2.4 h 18.18636 v 5 h 18.18636 v -2.4 l -0.1,-0.1 0.1,-0.1 v -2.4 h 18.18637 v 5 h 18.18636 v -2.4 l -0.1,-0.1 0.1,-0.1 v -2.4 h 18.18636 v 5 h 18.18637 v -2.4 l -0.1,-0.1 0.1,-0.1 v -2.4 h 18.18636 v 5 h 9.09318 v 9.09318 h 5 v 18.18637 h -2.4 l -0.1,0.1 -0.1,-0.1 h -2.4 v 18.18636 h 5 v 18.18636 h -2.4 l -0.1,0.1 -0.1,-0.1 h -2.4 v 18.18637 h 5 v 18.18636 h -2.4 l -0.1,0.1 -0.1,-0.1 h -2.4 v 18.18636 h 5 v 18.18637 h -2.4 l -0.1,0.1 -0.1,-0.1 h -2.4 v 18.18636 h 5 V 7.89741 h -2.4 l -0.1,0.1 -0.1,-0.1 h -2.4 v 18.18636 h 5 v 18.18636 h -2.4 l -0.1,0.1 -0.1,-0.1 h -2.4 V 62.4565 h 5 v 18.18636 h -2.4 l -0.1,0.1 -0.1,-0.1 h -2.4 v 18.18637 h 5 v 18.18632 h -2.4 l -0.1,0.1 -0.1,-0.1 h -2.4 v 18.1864 h 5 v 18.1864 h -2.4 l -0.1,0.1 -0.1,-0.1 h -2.4 v 18.1863 h 5 v 18.1864 h -2.4 l -0.1,0.1 -0.1,-0.1 h -2.4 v 18.1864 h 5 v 18.1863 h -2.4 l -0.1,0.1 -0.1,-0.1 h -2.4 v 9.0932 h -9.09318 v 5 H 88.03294 v -2.4 l -0.1,-0.1 0.1,-0.1 v -2.4 H 69.84657 v 5 H 51.66021 v -2.4 l -0.1,-0.1 0.1,-0.1 v -2.4 H 33.47385 v 5 H 15.28748 v -2.4 l -0.1,-0.1 0.1,-0.1 v -2.4 H -2.89888 v 5 h -18.18636 v -2.4 l -0.1,-0.1 0.1,-0.1 v -2.4 h -18.18637 v 5 h -18.18636 v -2.4 l -0.1,-0.1 0.1,-0.1 v -2.4 h -18.18637 v 5 H -93.8307 v -2.4 l -0.1,-0.1 0.1,-0.1 v -2.4 h -18.18636 v 5 h -18.18637 v -2.4 l -0.1,-0.1 0.1,-0.1 v -2.4 h -18.18636 v 5 h -18.18637 v -2.4 l -0.1,-0.1 0.1,-0.1 v -2.4 h -18.18636 v 5 h -18.18636 v -2.4 l -0.1,-0.1 0.1,-0.1 v -2.4 h -18.18637 v 5 h -18.18636 v -2.4 l -0.1,-0.1 0.1,-0.1 v -2.4 h -18.18636 v 5 h -18.18637 v -2.4 l -0.1,-0.1 0.1,-0.1 v -2.4 h -9.09318 v -9.0932 h -2.4 l -0.1,0.1 -0.1,-0.1 h -2.4 v -18.1863 h 5 v -18.1864 h -2.4 l -0.1,0.1 -0.1,-0.1 h -2.4 v -18.1864 h 5 v -18.1863 h -2.4 l -0.1,0.1 -0.1,-0.1 h -2.4 v -18.1864 h 5 v -18.1864 h -2.4 l -0.1,0.1 -0.1,-0.1 h -2.4 V 98.82923 h 5 V 80.64286 h -2.4 l -0.1,0.1 -0.1,-0.1 h -2.4 V 62.4565 h 5 V 44.27013 h -2.4 l -0.1,0.1 -0.1,-0.1 h -2.4 V 26.08377 h 5 V 7.89741 h -2.4 l -0.1,0.1 -0.1,-0.1 h -2.4 v -18.18637 h 5 v -18.18636 h -2.4 l -0.1,0.1 -0.1,-0.1 h -2.4 v -18.18637 h 5 v -18.18636 h -2.4 l -0.1,0.1 -0.1,-0.1 h -2.4 v -18.18636 h 5 v -18.18637 h -2.4 l -0.1,0.1 -0.1,-0.1 h -2.4 v -18.18636 h 5 v -18.18636 h -2.4 l -0.1,0.1 -0.1,-0.1 h -2.4 v -18.18637 h 5 v -9.09318"
       id="box-base"
       style="fill:none;stroke:#0000ff;stroke-width:0.1;stroke-linecap:butt;stroke-linejoin:miter" />
    <path
       inkscape:connector-curvature="0"
       d="m -289.78752,250.22695 v -5 h 14.09318 v 5 h 18.18637 v -2.4 l -0.1,-0.1 0.1,-0.1 v -2.4 h 18.18636 v 5 h 18.18636 v -2.4 l -0.1,-0.1 0.1,-0.1 v -2.4 h 18.18637 v 5 h 18.18636 v -2.4 l -0.1,-0.1 0.1,-0.1 v -2.4 h 18.18636 v 5 h 18.18637 v -2.4 l -0.1,-0.1 0.1,-0.1 v -2.4 h 18.18636 v 5 h 18.18637 v -2.4 l -0.1,-0.1 0.1,-0.1 v -2.4 h 18.18636 v 5 h 18.18636 v -2.4 l -0.1,-0.1 0.1,-0.1 v -2.4 h 18.18637 v 5 h 18.18636 v -2.4 l -0.1,-0.1 0.1,-0.1 v -2.4 h 18.18637 v 5 h 18.18636 v -2.4 l -0.1,-0.1 0.1,-0.1 v -2.4 h 18.18636 v 5 h 18.18637 v -2.4 l -0.1,-0.1 0.1,-0.1 v -2.4 h 18.18636 v 5 h 18.18636 v -2.4 l -0.1,-0.1 0.1,-0.1 v -2.4 h 18.18637 v 5 h 18.18636 v -2.4 l -0.1,-0.1 0.1,-0.1 v -2.4 h 14.09318 v 17.5042 h -2.4 l -0.1,0.1 -0.1,-0.1 h -2.4 v 25.0083 h 5 v 25.0083 h -2.4 l -0.1,0.1 -0.1,-0.1 h -2.4 v 25.0084 h 5 v 25.0083 h -2.4 l -0.1,0.1 -0.1,-0.1 h -2.4 v 25.0083 h 5 v 25.0084 h -2.4 l -0.1,0.1 -0.1,-0.1 h -2.4 v 25.0083 h 5 v 25.0083 h -2.4 l -0.1,0.1 -0.1,-0.1 h -2.4 v 25.0084 h 5 v 25.0083 h -2.4 l -0.1,0.1 -0.1,-0.1 h -2.4 v 25.0083 h 5 v 17.5042 H 106.2193 v -2.4 l -0.1,-0.1 0.1,-0.1 v -2.4 H 88.03294 v 5 H 69.84657 v -2.4 l -0.1,-0.1 0.1,-0.1 v -2.4 H 51.66021 v 5 H 33.47385 v -2.4 l -0.1,-0.1 0.1,-0.1 v -2.4 H 15.28748 v 5 H -2.89888 v -2.4 l -0.1,-0.1 0.1,-0.1 v -2.4 h -18.18636 v 5 h -18.18637 v -2.4 l -0.1,-0.1 0.1,-0.1 v -2.4 h -18.18636 v 5 h -18.18637 v -2.4 l -0.1,-0.1 0.1,-0.1 v -2.4 H -93.8307 v 5 h -18.18636 v -2.4 l -0.1,-0.1 0.1,-0.1 v -2.4 h -18.18637 v 5 h -18.18636 v -2.4 l -0.1,-0.1 0.1,-0.1 v -2.4 h -18.18637 v 5 h -18.18636 v -2.4 l -0.1,-0.1 0.1,-0.1 v -2.4 h -18.18636 v 5 h -18.18637 v -2.4 l -0.1,-0.1 0.1,-0.1 v -2.4 h -18.18636 v 5 h -18.18636 v -2.4 l -0.1,-0.1 0.1,-0.1 v -2.4 h -18.18637 v 5 h -14.09318 v -17.5042 h 5 v -25.0083 h -2.4 l -0.1,0.1 -0.1,-0.1 h -2.4 v -25.0083 h 5 v -25.0084 h -2.4 l -0.1,0.1 -0.1,-0.1 h -2.4 v -25.0083 h 5 v -25.0083 h -2.4 l -0.1,0.1 -0.1,-0.1 h -2.4 v -25.0084 h 5 v -25.0083 h -2.4 l -0.1,0.1 -0.1,-0.1 h -2.4 v -25.0083 h 5 v -25.0084 h -2.4 l -0.1,0.1 -0.1,-0.1 h -2.4 v -25.0083 h 5 v -25.0083 h -2.4 l -0.1,0.1 -0.1,-0.1 h -2.4 v -12.5042"
       id="box-longside2"
       style="fill:none;stroke:#0000ff;stroke-width:0.1;stroke-linecap:butt;stroke-linejoin:miter" />
    <path
       inkscape:connector-curvature="0"
       d="m 125.31248,-895.07305 h 17.50417 v -5 h 25.00833 v 2.4 l 0.1,0.1 -0.1,0.1 v 2.4 h 25.00833 v -5 h 25.00834 v 2.4 l 0.1,0.1 -0.1,0.1 v 2.4 h 25.00833 v -5 h 25.00833 v 2.4 l 0.1,0.1 -0.1,0.1 v 2.4 h 25.00834 v -5 h 25.00833 v 2.4 l 0.1,0.1 -0.1,0.1 v 2.4 h 25.00833 v -5 h 25.00834 v 2.4 l 0.1,0.1 -0.1,0.1 v 2.4 h 25.00833 v -5 h 25.00833 v 2.4 l 0.1,0.1 -0.1,0.1 v 2.4 h 17.50417 v 9.09318 h -2.4 l -0.1,0.1 -0.1,-0.1 h -2.4 v 18.18637 h 5 v 18.18636 h -2.4 l -0.1,0.1 -0.1,-0.1 h -2.4 v 18.18636 h 5 v 18.18637 h -2.4 l -0.1,0.1 -0.1,-0.1 h -2.4 v 18.18636 h 5 v 18.18636 h -2.4 l -0.1,0.1 -0.1,-0.1 h -2.4 v 18.18637 h 5 v 18.18636 h -2.4 l -0.1,0.1 -0.1,-0.1 h -2.4 v 18.18637 h 5 v 18.18636 h -2.4 l -0.1,0.1 -0.1,-0.1 h -2.4 v 18.18636 h 5 v 18.18637 h -2.4 l -0.1,0.1 -0.1,-0.1 h -2.4 v 18.18636 h 5 v 18.18637 h -2.4 l -0.1,0.1 -0.1,-0.1 h -2.4 v 18.18636 h 5 v 18.18636 h -2.4 l -0.1,0.1 -0.1,-0.1 h -2.4 v 18.18637 h 5 v 18.18636 h -2.4 l -0.1,0.1 -0.1,-0.1 h -2.4 v 18.18636 h 5 v 18.18637 h -2.4 l -0.1,0.1 -0.1,-0.1 h -2.4 v 18.18636 h 5 v 9.09318 h -17.50417 v 2.4 l 0.1,0.1 -0.1,0.1 v 2.4 h -25.00833 v -5 h -25.00833 v 2.4 l 0.1,0.1 -0.1,0.1 v 2.4 h -25.00834 v -5 h -25.00833 v 2.4 l 0.1,0.1 -0.1,0.1 v 2.4 h -25.00833 v -5 h -25.00834 v 2.4 l 0.1,0.1 -0.1,0.1 v 2.4 h -25.00833 v -5 h -25.00833 v 2.4 l 0.1,0.1 -0.1,0.1 v 2.4 h -25.00834 v -5 h -25.00833 v 2.4 l 0.1,0.1 -0.1,0.1 v 2.4 h -25.00833 v -5 h -17.50417 v -9.09318 h 5 v -18.18636 h -2.4 l -0.1,0.1 -0.1,-0.1 h -2.4 v -18.18637 h 5 v -18.18636 h -2.4 l -0.1,0.1 -0.1,-0.1 h -2.4 v -18.18636 h 5 v -18.18637 h -2.4 l -0.1,0.1 -0.1,-0.1 h -2.4 v -18.18636 h 5 v -18.18636 h -2.4 l -0.1,0.1 -0.1,-0.1 h -2.4 v -18.18637 h 5 v -18.18636 h -2.4 l -0.1,0.1 -0.1,-0.1 h -2.4 v -18.18637 h 5 v -18.18636 h -2.4 l -0.1,0.1 -0.1,-0.1 h -2.4 v -18.18636 h 5 v -18.18637 h -2.4 l -0.1,0.1 -0.1,-0.1 h -2.4 v -18.18636 h 5 v -18.18637 h -2.4 l -0.1,0.1 -0.1,-0.1 h -2.4 v -18.18636 h 5 v -18.18636 h -2.4 l -0.1,0.1 -0.1,-0.1 h -2.4 v -18.18637 h 5 v -18.18636 h -2.4 l -0.1,0.1 -0.1,-0.1 h -2.4 v -18.18636 h 5 v -18.18637 h -2.4 l -0.1,0.1 -0.1,-0.1 h -2.4 v -9.09318"
       id="box-endface2"
       style="fill:none;stroke:#0000ff;stroke-width:0.1;stroke-linecap:butt;stroke-linejoin:miter" />
    <path
       inkscape:connector-curvature="0"
       d="m 406.15,-14.150002 v 17.50417 h 5 v 25.00833 h -2.4 l -0.1,0.1 -0.1,-0.1 h -2.4 v 25.00833 h 5 v 25.00834 h -2.4 l -0.1,0.1 -0.1,-0.1 h -2.4 V 103.3875 h 5 v 25.00833 h -2.4 l -0.1,0.1 -0.1,-0.1 h -2.4 v 25.00834 h 5 v 25.00833 h -2.4 l -0.1,0.1 -0.1,-0.1 h -2.4 v 25.00833 h 5 v 25.00834 h -2.4 l -0.1,0.1 -0.1,-0.1 h -2.4 v 25.00833 h 5 v 25.00833 h -2.4 l -0.1,0.1 -0.1,-0.1 h -2.4 V 295.95 h -9.09318 v -2.4 l -0.1,-0.1 0.1,-0.1 v -2.4 h -18.18637 v 5 h -18.18636 v -2.4 l -0.1,-0.1 0.1,-0.1 v -2.4 h -18.18636 v 5 h -18.18637 v -2.4 l -0.1,-0.1 0.1,-0.1 v -2.4 H 306.125 v 5 h -18.18636 v -2.4 l -0.1,-0.1 0.1,-0.1 v -2.4 h -18.18637 v 5 h -18.18636 v -2.4 l -0.1,-0.1 0.1,-0.1 v -2.4 h -18.18637 v 5 h -18.18636 v -2.4 l -0.1,-0.1 0.1,-0.1 v -2.4 h -18.18636 v 5 h -18.18637 v -2.4 l -0.1,-0.1 0.1,-0.1 v -2.4 h -18.18636 v 5 h -18.18637 v -2.4 l -0.1,-0.1 0.1,-0.1 v -2.4 H 124.2614 v 5 H 106.075 v -2.4 l -0.1,-0.1 0.1,-0.1 v -2.4 H 87.8886 v 5 H 69.7023 v -2.4 l -0.1,-0.1 0.1,-0.1 v -2.4 H 51.5159 v 5 H 33.3295 v -2.4 l -0.1,-0.1 0.1,-0.1 v -2.4 H 15.1432 v 5 H 6.05 v -17.50417 h -2.4 l -0.1,0.1 -0.1,-0.1 H 1.05 V 253.4375 h 5 v -25.00833 h -2.4 l -0.1,0.1 -0.1,-0.1 h -2.4 v -25.00834 h 5 V 178.4125 h -2.4 l -0.1,0.1 -0.1,-0.1 h -2.4 v -25.00833 h 5 v -25.00834 h -2.4 l -0.1,0.1 -0.1,-0.1 H 1.05 V 103.3875 h 5 V 78.379168 h -2.4 l -0.1,0.1 -0.1,-0.1 h -2.4 v -25.00834 h 5 v -25.00833 h -2.4 l -0.1,0.1 -0.1,-0.1 H 1.05 V 3.354168 h 5 v -17.50417 h 9.0932 v 5 h 18.1863 v -2.4 l -0.1,-0.1 0.1,-0.1 v -2.4 h 18.1864 v 5 h 18.1864 v -2.4 l -0.1,-0.1 0.1,-0.1 v -2.4 h 18.1863 v 5 h 18.1864 v -2.4 l -0.1,-0.1 0.1,-0.1 v -2.4 h 18.1864 v 5 h 18.18632 v -2.4 l -0.1,-0.1 0.1,-0.1 v -2.4 h 18.18637 v 5 h 18.18636 v -2.4 l -0.1,-0.1 0.1,-0.1 v -2.4 h 18.18637 v 5 h 18.18636 v -2.4 l -0.1,-0.1 0.1,-0.1 v -2.4 h 18.18636 v 5 h 18.18637 v -2.4 l -0.1,-0.1 0.1,-0.1 v -2.4 h 18.18636 v 5 h 18.18637 v -2.4 l -0.1,-0.1 0.1,-0.1 v -2.4 H 306.125 v 5 h 18.18636 v -2.4 l -0.1,-0.1 0.1,-0.1 v -2.4 h 18.18637 v 5 h 18.18636 v -2.4 l -0.1,-0.1 0.1,-0.1 v -2.4 h 18.18636 v 5 h 18.18637 v -2.4 l -0.1,-0.1 0.1,-0.1 v -2.4 H 406.15"
       id="box-endface1"
       style="fill:none;stroke:#0000ff;stroke-width:0.1;stroke-linecap:butt;stroke-linejoin:miter" />
  </g>
  <g
     inkscape:groupmode="layer"
     id="layer2"
     inkscape:label="Calque 2" />
  <g
     inkscape:groupmode="layer"
     id="layer3"
     inkscape:label="Calque 3" />
  <g
     inkscape:groupmode="layer"
     id="layer4"
     inkscape:label="Calque 4" />
  <g
     inkscape:groupmode="layer"
     id="layer5"
     inkscape:label="Calque 5" />
  <g
     inkscape:groupmode="layer"
     id="layer6"
     inkscape:label="Calque 6" />
</svg>
