<?xml version="1.0" encoding="UTF-8" standalone="no"?>
<!-- Created with Inkscape (http://www.inkscape.org/) -->

<svg
   xmlns:dc="http://purl.org/dc/elements/1.1/"
   xmlns:cc="http://creativecommons.org/ns#"
   xmlns:rdf="http://www.w3.org/1999/02/22-rdf-syntax-ns#"
   xmlns:svg="http://www.w3.org/2000/svg"
   xmlns="http://www.w3.org/2000/svg"
   xmlns:sodipodi="http://sodipodi.sourceforge.net/DTD/sodipodi-0.dtd"
   xmlns:inkscape="http://www.inkscape.org/namespaces/inkscape"
   width="610mm"
   height="305mm"
   viewBox="0 0 610 305"
   version="1.1"
   id="svg31"
   inkscape:version="0.92.3 (2405546, 2018-03-11)"
   sodipodi:docname="projet.svg">
  <sodipodi:namedview
     id="base"
     pagecolor="#ffffff"
     bordercolor="#666666"
     borderopacity="1.0"
     inkscape:pageopacity="0.0"
     inkscape:pageshadow="2"
     inkscape:zoom="0.175"
     inkscape:cx="-742.75397"
     inkscape:cy="1065.0445"
     inkscape:document-units="mm"
     inkscape:current-layer="layer8"
     showgrid="false"
     inkscape:window-width="1366"
     inkscape:window-height="705"
     inkscape:window-x="-8"
     inkscape:window-y="-8"
     inkscape:window-maximized="1" />
  <defs
     id="defs25" />
  <metadata
     id="metadata28">
    <rdf:RDF>
      <cc:Work
         rdf:about="">
        <dc:format>image/svg+xml</dc:format>
        <dc:type
           rdf:resource="http://purl.org/dc/dcmitype/StillImage" />
        <dc:title />
      </cc:Work>
    </rdf:RDF>
  </metadata>
  <g
     inkscape:groupmode="layer"
     id="layer10"
     inkscape:label="gauche"
     style="display:inline">
    <path
       inkscape:connector-curvature="0"
       d="m 396.15003,3.84999 v 17.0875 h 5 v 24.175 h -2.4 l -0.1,0.1 -0.1,-0.1 h -2.4 v 24.175 h 5 v 24.175009 h -2.4 l -0.1,0.100002 -0.1,-0.100002 h -2.4 V 117.6375 h 5 v 24.175 h -2.4 l -0.1,0.1 -0.1,-0.1 h -2.4 v 24.175 h 5 v 24.175 h -2.4 l -0.1,0.1 -0.1,-0.1 h -2.4 v 24.175 h 5 v 24.175 h -2.4 l -0.1,0.1 -0.1,-0.1 h -2.4 v 24.175 h 5 v 24.17498 h -2.4 l -0.1,0.10002 -0.1,-0.10002 h -2.4 v 17.08751 h -8.86591 v -2.40001 l -0.1,-0.1 0.1,-0.10002 v -2.39998 H 369.5523 v 5.00001 h -17.73182 v -2.40001 l -0.1,-0.1 0.1,-0.10002 v -2.39998 h -17.73181 v 5.00001 h -17.73182 v -2.40001 l -0.1,-0.1 0.1,-0.10002 v -2.39998 h -17.73182 v 5.00001 h -17.73182 v -2.4 l -0.1,-0.1 0.1,-0.10002 v -2.39998 H 263.16139 V 303.95 h -17.73181 v -2.40001 l -0.1,-0.1 0.1,-0.10002 v -2.39998 H 227.69776 V 303.95 h -17.73182 v -2.40001 l -0.1,-0.1 0.1,-0.10002 v -2.39998 H 192.23412 V 303.95 H 174.5023 v -2.40001 l -0.1,-0.1 0.1,-0.10002 v -2.39998 H 156.77049 V 303.95 h -17.73182 v -2.40001 l -0.1,-0.1 0.1,-0.10002 v -2.39998 H 121.30685 V 303.95 h -17.73182 v -2.40001 l -0.10002,-0.1 0.10002,-0.10002 v -2.39998 H 85.84321 V 303.95 H 68.11139 v -2.40001 l -0.1,-0.1 0.1,-0.10002 v -2.39998 H 50.37957 V 303.95 H 32.64775 v -2.40001 l -0.1,-0.1 0.1,-0.10002 v -2.39998 H 14.91593 V 303.95 h -8.8659 v -17.08751 h -2.4 l -0.10002,0.10002 -0.1,-0.10002 H 1.05 V 262.6875 h 5.00003 v -24.175 h -2.4 l -0.10002,0.1 -0.1,-0.1 H 1.05 v -24.175 h 5.00003 v -24.175 h -2.4 l -0.10002,0.1 -0.1,-0.1 H 1.05 v -24.175 h 5.00003 v -24.175 h -2.4 l -0.10002,0.1 -0.1,-0.1 H 1.05 v -24.175 H 6.05003 V 93.462499 h -2.4 l -0.10002,0.100002 -0.1,-0.100002 H 1.05 V 69.28749 h 5.00003 v -24.175 h -2.4 l -0.10002,0.1 -0.1,-0.1 H 1.05 v -24.175 H 6.05003 V 3.84999 h 8.8659 v 5 h 17.73182 v -2.4 l -0.1,-0.1 0.1,-0.1 v -2.4 h 17.73182 v 5 h 17.73182 v -2.4 l -0.1,-0.1 0.1,-0.1 v -2.4 h 17.73182 v 5 h 17.73182 v -2.4 l -0.10002,-0.1 0.10002,-0.1 v -2.4 h 17.73182 v 5 h 17.73182 v -2.4 l -0.1,-0.1 0.1,-0.1 v -2.4 h 17.73182 v 5 h 17.73181 v -2.4 l -0.1,-0.1 0.1,-0.1 v -2.4 h 17.73182 v 5 h 17.73182 v -2.4 l -0.1,-0.1 0.1,-0.1 v -2.4 h 17.73182 v 5 h 17.73182 v -2.4 l -0.1,-0.1 0.1,-0.1 v -2.4 h 17.73181 v 5 h 17.73182 v -2.4 l -0.1,-0.1 0.1,-0.1 v -2.4 h 17.73182 v 5 h 17.73182 v -2.4 l -0.1,-0.1 0.1,-0.1 v -2.4 h 17.73182 v 5 h 17.73181 v -2.4 l -0.1,-0.1 0.1,-0.1 v -2.4 h 17.73182 v 5 h 17.73182 v -2.4 l -0.1,-0.1 0.1,-0.1 v -2.4 h 8.86591"
       id="box-endface2-2"
       style="fill:none;stroke:#0000ff;stroke-width:0.1;stroke-linecap:butt;stroke-linejoin:miter" />
  </g>
  <g
     inkscape:groupmode="layer"
     id="layer9"
     inkscape:label="au_dessus"
     style="display:none">
    <path
       inkscape:connector-curvature="0"
       d="m 1.05,8.85 v -5 h 13.86591 v 5 h 17.73182 v -2.4 l -0.1,-0.1 0.1,-0.1 v -2.4 h 17.73181 v 5 h 17.73182 v -2.4 l -0.1,-0.1 0.1,-0.1 v -2.4 h 17.73182 v 5 H 103.575 v -2.4 l -0.1,-0.1 0.1,-0.1 v -2.4 h 17.73182 v 5 h 17.73182 v -2.4 l -0.1,-0.1 0.1,-0.1 v -2.4 h 17.73181 v 5 h 17.73182 v -2.4 l -0.1,-0.1 0.1,-0.1 v -2.4 h 17.73182 v 5 h 17.73182 v -2.4 l -0.1,-0.1 0.1,-0.1 v -2.4 h 17.73182 v 5 h 17.73181 v -2.4 l -0.1,-0.1 0.1,-0.1 v -2.4 h 17.73182 v 5 h 17.73182 v -2.4 l -0.10001,-0.1 0.10001,-0.1 V 3.85 H 298.625 v 5 h 17.73182 v -2.4 l -0.1,-0.1 0.1,-0.1 v -2.4 h 17.73182 v 5 h 17.73182 v -2.4 l -0.10001,-0.1 0.10001,-0.1 v -2.4 h 17.73182 v 5 h 17.73182 v -2.4 l -0.10001,-0.1 0.10001,-0.1 v -2.4 h 13.86591 V 20.9375 H 398.75 l -0.1,0.1 -0.10001,-0.1 H 396.15 v 24.175 h 5.00001 v 24.175 H 398.75 l -0.1,0.1 -0.10001,-0.1 H 396.15 v 24.175 h 5.00001 v 24.175 H 398.75 l -0.1,0.1 -0.10001,-0.1 H 396.15 v 24.175 h 5.00001 v 24.175 H 398.75 l -0.1,0.1 -0.10001,-0.1 H 396.15 v 24.175 h 5.00001 v 24.175 H 398.75 l -0.1,0.1 -0.10001,-0.1 H 396.15 v 24.175 h 5.00001 v 24.175 H 398.75 l -0.1,0.1 -0.10001,-0.1 H 396.15 v 24.17499 h 5.00001 V 303.95 H 387.2841 v -2.40001 l -0.10001,-0.1 0.10001,-0.10002 v -2.39998 H 369.55228 V 303.95 h -17.73182 v -2.40001 l -0.10001,-0.1 0.10001,-0.10002 v -2.39998 H 334.08864 V 303.95 h -17.73182 v -2.40001 l -0.1,-0.1 0.1,-0.10002 v -2.39998 H 298.625 V 303.95 h -17.73182 v -2.40001 l -0.10001,-0.1 0.10001,-0.10002 v -2.39998 H 263.16136 V 303.95 h -17.73182 v -2.40001 l -0.1,-0.1 0.1,-0.10002 v -2.39998 H 227.69773 V 303.95 h -17.73182 v -2.40001 l -0.1,-0.1 0.1,-0.10002 v -2.39998 H 192.23409 V 303.95 h -17.73182 v -2.40001 l -0.1,-0.1 0.1,-0.10002 v -2.39998 H 156.77045 V 303.95 h -17.73181 v -2.40001 l -0.1,-0.1 0.1,-0.10002 v -2.39998 H 121.30682 V 303.95 H 103.575 v -2.40001 l -0.1,-0.1 0.1,-0.10002 v -2.39998 H 85.84318 V 303.95 H 68.11136 v -2.40001 l -0.1,-0.1 0.1,-0.10002 v -2.39998 H 50.37954 V 303.95 H 32.64773 v -2.40001 l -0.1,-0.1 0.1,-0.10002 v -2.39998 H 14.91591 V 303.95 H 1.05 v -17.08751 h 5 V 262.6875 h -2.4 l -0.1,0.1 -0.1,-0.1 h -2.4 v -24.175 h 5 v -24.175 h -2.4 l -0.1,0.1 -0.1,-0.1 h -2.4 v -24.175 h 5 v -24.175 h -2.4 l -0.1,0.1 -0.1,-0.1 h -2.4 v -24.175 h 5 v -24.175 h -2.4 l -0.1,0.1 -0.1,-0.1 h -2.4 v -24.175 h 5 v -24.175 h -2.4 l -0.1,0.1 -0.1,-0.1 h -2.4 v -24.175 h 5 v -24.175 h -2.4 l -0.1,0.1 -0.1,-0.1 H 1.05 V 8.85"
       id="box-longside1-8"
       style="fill:none;stroke:#0000ff;stroke-width:0.1;stroke-linecap:butt;stroke-linejoin:miter" />
  </g>
  <g
     inkscape:groupmode="layer"
     id="layer7"
     inkscape:label="droite"
     style="display:inline">
    <path
       inkscape:connector-curvature="0"
       d="m 396.15004,3.850003 v 17.0875 h 5 v 24.175 h -2.4 l -0.1,0.10001 -0.1,-0.10001 h -2.4 v 24.175 h 5 v 24.175 h -2.4 l -0.1,0.10001 -0.1,-0.10001 h -2.4 V 117.6375 h 5 v 24.175 h -2.4 l -0.1,0.1 -0.1,-0.1 h -2.4 v 24.175 h 5 v 24.175 h -2.4 l -0.1,0.1 -0.1,-0.1 h -2.4 v 24.175 h 5 v 24.175 h -2.4 l -0.1,0.1 -0.1,-0.1 h -2.4 v 24.175 h 5 v 24.17499 h -2.4 l -0.1,0.10002 -0.1,-0.10002 h -2.4 V 303.95 h -8.86591 v -2.40001 l -0.1,-0.1 0.1,-0.10002 v -2.39998 H 369.55231 V 303.95 h -17.73182 v -2.40001 l -0.1,-0.1 0.1,-0.10002 v -2.39998 H 334.08868 V 303.95 h -17.73182 v -2.40001 l -0.1,-0.1 0.1,-0.10002 v -2.39998 H 298.62504 V 303.95 h -17.73182 v -2.40001 l -0.1,-0.1 0.1,-0.10002 v -2.39998 H 263.1614 V 303.95 h -17.73181 v -2.40001 l -0.1,-0.1 0.1,-0.10002 v -2.39998 H 227.69777 V 303.95 h -17.73182 v -2.40001 l -0.1,-0.1 0.1,-0.10002 v -2.39998 H 192.23413 V 303.95 h -17.73182 v -2.40001 l -0.1,-0.1 0.1,-0.10002 v -2.39998 H 156.7705 V 303.95 h -17.73182 v -2.40001 l -0.1,-0.1 0.1,-0.10002 v -2.39998 H 121.30685 V 303.95 h -17.73182 v -2.40001 l -0.1,-0.1 0.1,-0.10002 v -2.39998 H 85.84323 V 303.95 H 68.11144 v -2.40001 l -0.10001,-0.1 0.10001,-0.10002 v -2.39998 H 50.37954 V 303.95 H 32.64772 v -2.40001 l -0.1,-0.1 0.1,-0.10002 v -2.39998 H 14.91593 V 303.95 h -8.8659 v -17.08751 h -2.4 l -0.10002,0.10002 -0.1,-0.10002 H 1.05 V 262.6875 h 5.00003 v -24.175 h -2.4 l -0.10002,0.1 -0.1,-0.1 H 1.05 v -24.175 h 5.00003 v -24.175 h -2.4 l -0.10002,0.1 -0.1,-0.1 H 1.05 v -24.175 h 5.00003 v -24.175 h -2.4 l -0.10002,0.1 -0.1,-0.1 H 1.05 v -24.175 H 6.05003 V 93.462503 h -2.4 l -0.10002,0.10001 -0.1,-0.10001 H 1.05 v -24.175 h 5.00003 v -24.175 h -2.4 l -0.10002,0.10001 -0.1,-0.10001 H 1.05 v -24.175 h 5.00003 v -17.0875 h 8.8659 v 5 h 17.73179 v -2.4 l -0.1,-0.1 0.1,-0.1 v -2.4 h 17.73182 v 5 h 17.7319 v -2.4 l -0.10001,-0.1 0.10001,-0.1 v -2.4 h 17.73179 v 5 h 17.7318 v -2.4 l -0.1,-0.1 0.1,-0.1 v -2.4 h 17.73182 v 5 h 17.73183 v -2.4 l -0.1,-0.1 0.1,-0.1 v -2.4 h 17.73182 v 5 h 17.73181 v -2.4 l -0.1,-0.1 0.1,-0.1 v -2.4 h 17.73182 v 5 h 17.73182 v -2.4 l -0.1,-0.1 0.1,-0.1 v -2.4 h 17.73182 v 5 h 17.73182 v -2.4 l -0.1,-0.1 0.1,-0.1 v -2.4 h 17.73181 v 5 h 17.73182 v -2.4 l -0.1,-0.1 0.1,-0.1 v -2.4 h 17.73182 v 5 h 17.73182 v -2.4 l -0.1,-0.1 0.1,-0.1 v -2.4 h 17.73182 v 5 h 17.73181 v -2.4 l -0.1,-0.1 0.1,-0.1 v -2.4 h 17.73182 v 5 h 17.73182 v -2.4 l -0.1,-0.1 0.1,-0.1 v -2.4 h 8.86591"
       id="box-endface1-9"
       style="fill:none;stroke:#0000ff;stroke-width:0.1;stroke-linecap:butt;stroke-linejoin:miter" />
  </g>
  <g
     inkscape:groupmode="layer"
     id="layer8"
     inkscape:label="en_bas"
     style="display:none">
    <path
       inkscape:connector-curvature="0"
       d="m 1.05,8.8499996 v -5 h 13.86591 v 5 h 17.73182 v -2.4 l -0.1,-0.1 0.1,-0.1 v -2.4 h 17.73181 v 5 h 17.73182 v -2.4 l -0.1,-0.1 0.1,-0.1 v -2.4 h 17.73182 v 5 H 103.575 v -2.4 l -0.1,-0.1 0.1,-0.1 v -2.4 h 17.73182 v 5 h 17.73182 v -2.4 l -0.1,-0.1 0.1,-0.1 v -2.4 h 17.73181 v 5 h 17.73182 v -2.4 l -0.1,-0.1 0.1,-0.1 v -2.4 h 17.73182 v 5 h 17.73182 v -2.4 l -0.1,-0.1 0.1,-0.1 v -2.4 h 17.73182 v 5 h 17.73181 v -2.4 l -0.1,-0.1 0.1,-0.1 v -2.4 h 17.73182 v 5 h 17.73182 v -2.4 l -0.10001,-0.1 0.10001,-0.1 v -2.4 H 298.625 v 5 h 17.73182 v -2.4 l -0.1,-0.1 0.1,-0.1 v -2.4 h 17.73182 v 5 h 17.73182 v -2.4 l -0.10001,-0.1 0.10001,-0.1 v -2.4 h 17.73182 v 5 h 17.73182 v -2.4 l -0.10001,-0.1 0.10001,-0.1 v -2.4 h 13.86591 V 20.9375 H 398.75 l -0.1,0.1 -0.10001,-0.1 H 396.15 v 24.174999 h 5.00001 V 69.2875 H 398.75 l -0.1,0.100002 -0.10001,-0.100002 H 396.15 v 24.175 h 5.00001 v 24.175 H 398.75 l -0.1,0.1 -0.10001,-0.1 H 396.15 v 24.175 h 5.00001 v 24.175 H 398.75 l -0.1,0.1 -0.10001,-0.1 H 396.15 v 24.175 h 5.00001 v 24.175 H 398.75 l -0.1,0.1 -0.10001,-0.1 H 396.15 v 24.175 h 5.00001 v 24.175 H 398.75 l -0.1,0.1 -0.10001,-0.1 H 396.15 v 24.17499 h 5.00001 V 303.95 H 387.2841 v -2.40001 l -0.10001,-0.1 0.10001,-0.10002 v -2.39998 H 369.55228 V 303.95 h -17.73182 v -2.40001 l -0.10001,-0.1 0.10001,-0.10002 v -2.39998 H 334.08864 V 303.95 h -17.73182 v -2.40001 l -0.1,-0.1 0.1,-0.10002 v -2.39998 H 298.625 V 303.95 h -17.73182 v -2.40001 l -0.10001,-0.1 0.10001,-0.10002 v -2.39998 H 263.16136 V 303.95 h -17.73182 v -2.40001 l -0.1,-0.1 0.1,-0.10002 v -2.39998 H 227.69773 V 303.95 h -17.73182 v -2.40001 l -0.1,-0.1 0.1,-0.10002 v -2.39998 H 192.23409 V 303.95 h -17.73182 v -2.40001 l -0.1,-0.1 0.1,-0.10002 v -2.39998 H 156.77045 V 303.95 h -17.73181 v -2.40001 l -0.1,-0.1 0.1,-0.10002 v -2.39998 H 121.30682 V 303.95 H 103.575 v -2.40001 l -0.1,-0.1 0.1,-0.10002 v -2.39998 H 85.84318 V 303.95 H 68.11136 v -2.40001 l -0.1,-0.1 0.1,-0.10002 v -2.39998 H 50.37954 V 303.95 H 32.64773 v -2.40001 l -0.1,-0.1 0.1,-0.10002 v -2.39998 H 14.91591 V 303.95 H 1.05 v -17.08751 h 5 V 262.6875 h -2.4 l -0.1,0.1 -0.1,-0.1 h -2.4 v -24.175 h 5 v -24.175 h -2.4 l -0.1,0.1 -0.1,-0.1 h -2.4 v -24.175 h 5 v -24.175 h -2.4 l -0.1,0.1 -0.1,-0.1 h -2.4 v -24.175 h 5 v -24.175 h -2.4 l -0.1,0.1 -0.1,-0.1 h -2.4 v -24.175 h 5 V 69.2875 H 3.65 L 3.55,69.387502 3.45,69.2875 H 1.05 V 45.112499 h 5 V 20.9375 h -2.4 l -0.1,0.1 -0.1,-0.1 H 1.05 V 8.8499996"
       id="box-longside2-4"
       style="fill:none;stroke:#0000ff;stroke-width:0.1;stroke-linecap:butt;stroke-linejoin:miter" />
  </g>
</svg>
