<?xml version="1.0" encoding="UTF-8" standalone="no"?>
<!-- Created with Inkscape (http://www.inkscape.org/) -->

<svg
   xmlns:dc="http://purl.org/dc/elements/1.1/"
   xmlns:cc="http://creativecommons.org/ns#"
   xmlns:rdf="http://www.w3.org/1999/02/22-rdf-syntax-ns#"
   xmlns:svg="http://www.w3.org/2000/svg"
   xmlns="http://www.w3.org/2000/svg"
   xmlns:sodipodi="http://sodipodi.sourceforge.net/DTD/sodipodi-0.dtd"
   xmlns:inkscape="http://www.inkscape.org/namespaces/inkscape"
   width="210mm"
   height="297mm"
   viewBox="0 0 210 297"
   version="1.1"
   id="svg195"
   inkscape:version="0.92.3 (2405546, 2018-03-11)"
   sodipodi:docname="lasercut_projet.svg">
  <sodipodi:namedview
     id="base"
     pagecolor="#ffffff"
     bordercolor="#666666"
     borderopacity="1.0"
     inkscape:pageopacity="0.0"
     inkscape:pageshadow="2"
     inkscape:zoom="0.24748737"
     inkscape:cx="67.741717"
     inkscape:cy="3934.1612"
     inkscape:document-units="mm"
     inkscape:current-layer="layer1"
     showgrid="false"
     inkscape:window-width="1366"
     inkscape:window-height="705"
     inkscape:window-x="-8"
     inkscape:window-y="-8"
     inkscape:window-maximized="1" />
  <defs
     id="defs189" />
  <metadata
     id="metadata192">
    <rdf:RDF>
      <cc:Work
         rdf:about="">
        <dc:format>image/svg+xml</dc:format>
        <dc:type
           rdf:resource="http://purl.org/dc/dcmitype/StillImage" />
        <dc:title></dc:title>
      </cc:Work>
    </rdf:RDF>
  </metadata>
  <g
     id="layer1"
     inkscape:groupmode="layer"
     inkscape:label="Calque 1">
    <g
       transform="translate(-284.78752,-895.07305)"
       id="box">
      <path
         style="fill:none;stroke:#0000ff;stroke-width:0.1;stroke-linecap:butt;stroke-linejoin:miter"
         id="box-lid"
         d="m 0,0 h 9.0931818 v -2.4 l -0.1,-0.1 0.1,-0.1 V -5 H 27.279545 v 5 h 18.186364 v -2.4 l -0.1,-0.1 0.1,-0.1 V -5 h 18.186364 v 5 h 18.186364 v -2.4 l -0.1,-0.1 0.1,-0.1 V -5 H 100.025 v 5 h 18.18636 v -2.4 l -0.1,-0.1 0.1,-0.1 V -5 h 18.18637 v 5 h 18.18636 v -2.4 l -0.1,-0.1 0.1,-0.1 V -5 h 18.18637 v 5 h 18.18636 v -2.4 l -0.1,-0.1 0.1,-0.1 V -5 h 18.18636 v 5 h 18.18637 v -2.4 l -0.1,-0.1 0.1,-0.1 V -5 h 18.18636 v 5 h 18.18637 v -2.4 l -0.1,-0.1 0.1,-0.1 V -5 h 18.18636 V 0 H 300.075 v -2.4 l -0.1,-0.1 0.1,-0.1 V -5 h 18.18637 v 5 h 18.18636 v -2.4 l -0.1,-0.1 0.1,-0.1 V -5 h 18.18636 v 5 h 18.18637 v -2.4 l -0.1,-0.1 0.1,-0.1 V -5 h 18.18636 V 0 H 400.1 v 9.0931818 h 5 V 27.279545 h -2.4 l -0.1,0.1 -0.1,-0.1 h -2.4 v 18.186364 h 5 v 18.186364 h -2.4 l -0.1,0.1 -0.1,-0.1 h -2.4 v 18.186364 h 5 V 100.025 h -2.4 l -0.1,0.1 -0.1,-0.1 h -2.4 v 18.18636 h 5 v 18.18637 h -2.4 l -0.1,0.1 -0.1,-0.1 h -2.4 v 18.18636 h 5 v 18.18637 h -2.4 l -0.1,0.1 -0.1,-0.1 h -2.4 v 18.18636 h 5 v 18.18636 h -2.4 l -0.1,0.1 -0.1,-0.1 h -2.4 v 18.18637 h 5 v 18.18636 h -2.4 l -0.1,0.1 -0.1,-0.1 h -2.4 v 18.18637 h 5 v 18.18636 h -2.4 l -0.1,0.1 -0.1,-0.1 h -2.4 V 300.075 h 5 v 18.18637 h -2.4 l -0.1,0.1 -0.1,-0.1 h -2.4 v 18.18636 h 5 v 18.18636 h -2.4 l -0.1,0.1 -0.1,-0.1 h -2.4 v 18.18637 h 5 v 18.18636 h -2.4 l -0.1,0.1 -0.1,-0.1 h -2.4 V 400.1 h -9.09318 v 5 h -18.18636 v -2.4 l -0.1,-0.1 0.1,-0.1 v -2.4 h -18.18637 v 5 h -18.18636 v -2.4 l -0.1,-0.1 0.1,-0.1 v -2.4 h -18.18636 v 5 H 300.075 v -2.4 l -0.1,-0.1 0.1,-0.1 v -2.4 h -18.18636 v 5 h -18.18636 v -2.4 l -0.1,-0.1 0.1,-0.1 v -2.4 h -18.18637 v 5 h -18.18636 v -2.4 l -0.1,-0.1 0.1,-0.1 v -2.4 h -18.18637 v 5 h -18.18636 v -2.4 l -0.1,-0.1 0.1,-0.1 v -2.4 h -18.18636 v 5 h -18.18637 v -2.4 l -0.1,-0.1 0.1,-0.1 v -2.4 h -18.18636 v 5 h -18.18637 v -2.4 l -0.1,-0.1 0.1,-0.1 v -2.4 H 100.025 v 5 H 81.838637 v -2.4 l -0.1,-0.1 0.1,-0.1 v -2.4 H 63.652273 v 5 H 45.465909 v -2.4 l -0.1,-0.1 0.1,-0.1 v -2.4 H 27.279545 v 5 H 9.0931818 v -2.4 l -0.1,-0.1 0.1,-0.1 v -2.4 H 0 v -9.09318 h -2.4 l -0.1,0.1 -0.1,-0.1 H -5 v -18.18636 h 5 v -18.18637 h -2.4 l -0.1,0.1 -0.1,-0.1 H -5 v -18.18636 h 5 v -18.18636 h -2.4 l -0.1,0.1 -0.1,-0.1 H -5 V 300.075 h 5 v -18.18636 h -2.4 l -0.1,0.1 -0.1,-0.1 H -5 v -18.18636 h 5 v -18.18637 h -2.4 l -0.1,0.1 -0.1,-0.1 H -5 v -18.18636 h 5 v -18.18637 h -2.4 l -0.1,0.1 -0.1,-0.1 H -5 v -18.18636 h 5 v -18.18636 h -2.4 l -0.1,0.1 -0.1,-0.1 H -5 v -18.18637 h 5 v -18.18636 h -2.4 l -0.1,0.1 -0.1,-0.1 H -5 V 118.21136 H 0 V 100.025 h -2.4 l -0.1,0.1 -0.1,-0.1 H -5 V 81.838637 H 0 V 63.652273 h -2.4 l -0.1,0.1 -0.1,-0.1 H -5 V 45.465909 H 0 V 27.279545 h -2.4 l -0.1,0.1 -0.1,-0.1 H -5 V 9.0931818 H 0 V 0"
         inkscape:connector-curvature="0" />
      <path
         style="fill:none;stroke:#0000ff;stroke-width:0.1;stroke-linecap:butt;stroke-linejoin:miter"
         id="box-longside1"
         d="m -5,415.1 v -5 H 9.093182 v 5 h 18.186364 v -2.4 l -0.1,-0.1 0.1,-0.1 v -2.4 H 45.46591 v 5 h 18.186363 v -2.4 l -0.1,-0.1 0.1,-0.1 v -2.4 h 18.186364 v 5 H 100.025 v -2.4 l -0.1,-0.1 0.1,-0.1 v -2.4 h 18.18636 v 5 h 18.18637 v -2.4 l -0.1,-0.1 0.1,-0.1 v -2.4 h 18.18636 v 5 h 18.18637 v -2.4 l -0.1,-0.1 0.1,-0.1 v -2.4 h 18.18636 v 5 h 18.18636 v -2.4 l -0.1,-0.1 0.1,-0.1 v -2.4 h 18.18637 v 5 h 18.18636 v -2.4 l -0.1,-0.1 0.1,-0.1 v -2.4 h 18.18637 v 5 h 18.18636 v -2.4 l -0.1,-0.1 0.1,-0.1 v -2.4 H 300.075 v 5 h 18.18637 v -2.4 l -0.1,-0.1 0.1,-0.1 v -2.4 h 18.18636 v 5 h 18.18636 v -2.4 l -0.1,-0.1 0.1,-0.1 v -2.4 h 18.18637 v 5 h 18.18636 v -2.4 l -0.1,-0.1 0.1,-0.1 v -2.4 H 405.1 v 17.50417 h -2.4 l -0.1,0.1 -0.1,-0.1 h -2.4 v 25.00833 h 5 v 25.00833 h -2.4 l -0.1,0.1 -0.1,-0.1 h -2.4 v 25.00834 h 5 v 25.00833 h -2.4 l -0.1,0.1 -0.1,-0.1 h -2.4 v 25.00833 h 5 v 25.00834 h -2.4 l -0.1,0.1 -0.1,-0.1 h -2.4 v 25.00833 h 5 v 25.00833 h -2.4 l -0.1,0.1 -0.1,-0.1 h -2.4 v 25.00834 h 5 v 25.00833 h -2.4 l -0.1,0.1 -0.1,-0.1 h -2.4 v 25.00833 h 5 V 720.2 h -14.09318 v -2.4 l -0.1,-0.1 0.1,-0.1 v -2.4 h -18.18636 v 5 h -18.18637 v -2.4 l -0.1,-0.1 0.1,-0.1 v -2.4 h -18.18636 v 5 h -18.18636 v -2.4 l -0.1,-0.1 0.1,-0.1 v -2.4 H 300.075 v 5 h -18.18636 v -2.4 l -0.1,-0.1 0.1,-0.1 v -2.4 h -18.18636 v 5 h -18.18637 v -2.4 l -0.1,-0.1 0.1,-0.1 v -2.4 h -18.18636 v 5 h -18.18637 v -2.4 l -0.1,-0.1 0.1,-0.1 v -2.4 h -18.18636 v 5 h -18.18636 v -2.4 l -0.1,-0.1 0.1,-0.1 v -2.4 h -18.18637 v 5 h -18.18636 v -2.4 l -0.1,-0.1 0.1,-0.1 v -2.4 h -18.18637 v 5 H 100.025 v -2.4 l -0.1,-0.1 0.1,-0.1 v -2.4 H 81.838637 v 5 H 63.652273 v -2.4 l -0.1,-0.1 0.1,-0.1 v -2.4 H 45.46591 v 5 H 27.279546 v -2.4 l -0.1,-0.1 0.1,-0.1 v -2.4 H 9.093182 v 5 H -5 V 702.69583 H 0 V 677.6875 h -2.4 l -0.1,0.1 -0.1,-0.1 H -5 v -25.00833 h 5 v -25.00834 h -2.4 l -0.1,0.1 -0.1,-0.1 H -5 V 602.6625 h 5 v -25.00833 h -2.4 l -0.1,0.1 -0.1,-0.1 H -5 V 552.64583 H 0 V 527.6375 h -2.4 l -0.1,0.1 -0.1,-0.1 H -5 v -25.00833 h 5 v -25.00834 h -2.4 l -0.1,0.1 -0.1,-0.1 H -5 V 452.6125 h 5 v -25.00833 h -2.4 l -0.1,0.1 -0.1,-0.1 H -5 V 415.1"
         inkscape:connector-curvature="0" />
      <path
         style="fill:none;stroke:#0000ff;stroke-width:0.1;stroke-linecap:butt;stroke-linejoin:miter"
         id="box-base"
         d="m 0,730.2 h 9.0931818 v -2.4 l -0.1,-0.1 0.1,-0.1 v -2.4 H 27.279545 v 5 h 18.186364 v -2.4 l -0.1,-0.1 0.1,-0.1 v -2.4 h 18.186364 v 5 h 18.186364 v -2.4 l -0.1,-0.1 0.1,-0.1 v -2.4 H 100.025 v 5 h 18.18636 v -2.4 l -0.1,-0.1 0.1,-0.1 v -2.4 h 18.18637 v 5 h 18.18636 v -2.4 l -0.1,-0.1 0.1,-0.1 v -2.4 h 18.18637 v 5 h 18.18636 v -2.4 l -0.1,-0.1 0.1,-0.1 v -2.4 h 18.18636 v 5 h 18.18637 v -2.4 l -0.1,-0.1 0.1,-0.1 v -2.4 h 18.18636 v 5 h 18.18637 v -2.4 l -0.1,-0.1 0.1,-0.1 v -2.4 h 18.18636 v 5 H 300.075 v -2.4 l -0.1,-0.1 0.1,-0.1 v -2.4 h 18.18637 v 5 h 18.18636 v -2.4 l -0.1,-0.1 0.1,-0.1 v -2.4 h 18.18636 v 5 h 18.18637 v -2.4 l -0.1,-0.1 0.1,-0.1 v -2.4 h 18.18636 v 5 H 400.1 v 9.09318 h 5 v 18.18637 h -2.4 l -0.1,0.1 -0.1,-0.1 h -2.4 v 18.18636 h 5 v 18.18636 h -2.4 l -0.1,0.1 -0.1,-0.1 h -2.4 v 18.18637 h 5 V 830.225 h -2.4 l -0.1,0.1 -0.1,-0.1 h -2.4 v 18.18636 h 5 v 18.18637 h -2.4 l -0.1,0.1 -0.1,-0.1 h -2.4 v 18.18636 h 5 v 18.18637 h -2.4 l -0.1,0.1 -0.1,-0.1 h -2.4 v 18.18636 h 5 v 18.18636 h -2.4 l -0.1,0.1 -0.1,-0.1 h -2.4 v 18.18637 h 5 v 18.18636 h -2.4 l -0.1,0.1 -0.1,-0.1 h -2.4 v 18.18637 h 5 v 18.18632 h -2.4 l -0.1,0.1 -0.1,-0.1 h -2.4 v 18.1864 h 5 v 18.1864 h -2.4 l -0.1,0.1 -0.1,-0.1 h -2.4 v 18.1863 h 5 v 18.1864 h -2.4 l -0.1,0.1 -0.1,-0.1 h -2.4 v 18.1864 h 5 v 18.1863 h -2.4 l -0.1,0.1 -0.1,-0.1 h -2.4 v 9.0932 h -9.09318 v 5 h -18.18636 v -2.4 l -0.1,-0.1 0.1,-0.1 v -2.4 h -18.18637 v 5 h -18.18636 v -2.4 l -0.1,-0.1 0.1,-0.1 v -2.4 h -18.18636 v 5 H 300.075 v -2.4 l -0.1,-0.1 0.1,-0.1 v -2.4 h -18.18636 v 5 h -18.18636 v -2.4 l -0.1,-0.1 0.1,-0.1 v -2.4 h -18.18637 v 5 h -18.18636 v -2.4 l -0.1,-0.1 0.1,-0.1 v -2.4 h -18.18637 v 5 h -18.18636 v -2.4 l -0.1,-0.1 0.1,-0.1 v -2.4 h -18.18636 v 5 h -18.18637 v -2.4 l -0.1,-0.1 0.1,-0.1 v -2.4 h -18.18636 v 5 h -18.18637 v -2.4 l -0.1,-0.1 0.1,-0.1 v -2.4 H 100.025 v 5 H 81.838637 v -2.4 l -0.1,-0.1 0.1,-0.1 v -2.4 H 63.652273 v 5 H 45.465909 v -2.4 l -0.1,-0.1 0.1,-0.1 v -2.4 H 27.279545 v 5 H 9.0931818 v -2.4 l -0.1,-0.1 0.1,-0.1 v -2.4 H 0 v -9.0932 h -2.4 l -0.1,0.1 -0.1,-0.1 H -5 v -18.1863 h 5 v -18.1864 h -2.4 l -0.1,0.1 -0.1,-0.1 H -5 v -18.1864 h 5 v -18.1863 h -2.4 l -0.1,0.1 -0.1,-0.1 H -5 v -18.1864 h 5 v -18.1864 h -2.4 l -0.1,0.1 -0.1,-0.1 H -5 v -18.18632 h 5 v -18.18637 h -2.4 l -0.1,0.1 -0.1,-0.1 H -5 v -18.18636 h 5 v -18.18637 h -2.4 l -0.1,0.1 -0.1,-0.1 H -5 v -18.18636 h 5 v -18.18636 h -2.4 l -0.1,0.1 -0.1,-0.1 H -5 v -18.18637 h 5 v -18.18636 h -2.4 l -0.1,0.1 -0.1,-0.1 H -5 V 848.41136 H 0 V 830.225 h -2.4 l -0.1,0.1 -0.1,-0.1 H -5 v -18.18636 h 5 v -18.18637 h -2.4 l -0.1,0.1 -0.1,-0.1 H -5 v -18.18636 h 5 v -18.18636 h -2.4 l -0.1,0.1 -0.1,-0.1 H -5 V 739.29318 H 0 V 730.2"
         inkscape:connector-curvature="0" />
      <path
         style="fill:none;stroke:#0000ff;stroke-width:0.1;stroke-linecap:butt;stroke-linejoin:miter"
         id="box-longside2"
         d="m -5,1145.3 v -5 H 9.093182 v 5 h 18.186364 v -2.4 l -0.1,-0.1 0.1,-0.1 v -2.4 H 45.46591 v 5 h 18.186363 v -2.4 l -0.1,-0.1 0.1,-0.1 v -2.4 h 18.186364 v 5 H 100.025 v -2.4 l -0.1,-0.1 0.1,-0.1 v -2.4 h 18.18636 v 5 h 18.18637 v -2.4 l -0.1,-0.1 0.1,-0.1 v -2.4 h 18.18636 v 5 h 18.18637 v -2.4 l -0.1,-0.1 0.1,-0.1 v -2.4 h 18.18636 v 5 h 18.18636 v -2.4 l -0.1,-0.1 0.1,-0.1 v -2.4 h 18.18637 v 5 h 18.18636 v -2.4 l -0.1,-0.1 0.1,-0.1 v -2.4 h 18.18637 v 5 h 18.18636 v -2.4 l -0.1,-0.1 0.1,-0.1 v -2.4 H 300.075 v 5 h 18.18637 v -2.4 l -0.1,-0.1 0.1,-0.1 v -2.4 h 18.18636 v 5 h 18.18636 v -2.4 l -0.1,-0.1 0.1,-0.1 v -2.4 h 18.18637 v 5 h 18.18636 v -2.4 l -0.1,-0.1 0.1,-0.1 v -2.4 H 405.1 v 17.5042 h -2.4 l -0.1,0.1 -0.1,-0.1 h -2.4 v 25.0083 h 5 v 25.0083 h -2.4 l -0.1,0.1 -0.1,-0.1 h -2.4 v 25.0084 h 5 v 25.0083 h -2.4 l -0.1,0.1 -0.1,-0.1 h -2.4 v 25.0083 h 5 v 25.0084 h -2.4 l -0.1,0.1 -0.1,-0.1 h -2.4 v 25.0083 h 5 v 25.0083 h -2.4 l -0.1,0.1 -0.1,-0.1 h -2.4 v 25.0084 h 5 v 25.0083 h -2.4 l -0.1,0.1 -0.1,-0.1 h -2.4 v 25.0083 h 5 V 1450.4 h -14.09318 v -2.4 l -0.1,-0.1 0.1,-0.1 v -2.4 h -18.18636 v 5 h -18.18637 v -2.4 l -0.1,-0.1 0.1,-0.1 v -2.4 h -18.18636 v 5 h -18.18636 v -2.4 l -0.1,-0.1 0.1,-0.1 v -2.4 H 300.075 v 5 h -18.18636 v -2.4 l -0.1,-0.1 0.1,-0.1 v -2.4 h -18.18636 v 5 h -18.18637 v -2.4 l -0.1,-0.1 0.1,-0.1 v -2.4 h -18.18636 v 5 h -18.18637 v -2.4 l -0.1,-0.1 0.1,-0.1 v -2.4 h -18.18636 v 5 h -18.18636 v -2.4 l -0.1,-0.1 0.1,-0.1 v -2.4 h -18.18637 v 5 h -18.18636 v -2.4 l -0.1,-0.1 0.1,-0.1 v -2.4 h -18.18637 v 5 H 100.025 v -2.4 l -0.1,-0.1 0.1,-0.1 v -2.4 H 81.838637 v 5 H 63.652273 v -2.4 l -0.1,-0.1 0.1,-0.1 v -2.4 H 45.46591 v 5 H 27.279546 v -2.4 l -0.1,-0.1 0.1,-0.1 v -2.4 H 9.093182 v 5 H -5 v -17.5042 h 5 v -25.0083 h -2.4 l -0.1,0.1 -0.1,-0.1 H -5 v -25.0083 h 5 v -25.0084 h -2.4 l -0.1,0.1 -0.1,-0.1 H -5 v -25.0083 h 5 v -25.0083 h -2.4 l -0.1,0.1 -0.1,-0.1 H -5 v -25.0084 h 5 v -25.0083 h -2.4 l -0.1,0.1 -0.1,-0.1 H -5 v -25.0083 h 5 v -25.0084 h -2.4 l -0.1,0.1 -0.1,-0.1 H -5 v -25.0083 h 5 v -25.0083 h -2.4 l -0.1,0.1 -0.1,-0.1 H -5 V 1145.3"
         inkscape:connector-curvature="0" />
      <path
         style="fill:none;stroke:#0000ff;stroke-width:0.1;stroke-linecap:butt;stroke-linejoin:miter"
         id="box-endface2"
         d="m 410.1,0 h 17.50417 v -5 h 25.00833 v 2.4 l 0.1,0.1 -0.1,0.1 V 0 h 25.00833 v -5 h 25.00834 v 2.4 l 0.1,0.1 -0.1,0.1 V 0 h 25.00833 v -5 h 25.00833 v 2.4 l 0.1,0.1 -0.1,0.1 V 0 h 25.00834 v -5 h 25.00833 v 2.4 l 0.1,0.1 -0.1,0.1 V 0 h 25.00833 v -5 h 25.00834 v 2.4 l 0.1,0.1 -0.1,0.1 V 0 h 25.00833 v -5 h 25.00833 v 2.4 l 0.1,0.1 -0.1,0.1 V 0 H 720.2 v 9.0931818 h -2.4 l -0.1,0.1 -0.1,-0.1 h -2.4 V 27.279545 h 5 v 18.186364 h -2.4 l -0.1,0.1 -0.1,-0.1 h -2.4 v 18.186364 h 5 v 18.186364 h -2.4 l -0.1,0.1 -0.1,-0.1 h -2.4 V 100.025 h 5 v 18.18636 h -2.4 l -0.1,0.1 -0.1,-0.1 h -2.4 v 18.18637 h 5 v 18.18636 h -2.4 l -0.1,0.1 -0.1,-0.1 h -2.4 v 18.18637 h 5 v 18.18636 h -2.4 l -0.1,0.1 -0.1,-0.1 h -2.4 v 18.18636 h 5 v 18.18637 h -2.4 l -0.1,0.1 -0.1,-0.1 h -2.4 v 18.18636 h 5 v 18.18637 h -2.4 l -0.1,0.1 -0.1,-0.1 h -2.4 v 18.18636 h 5 V 300.075 h -2.4 l -0.1,0.1 -0.1,-0.1 h -2.4 v 18.18637 h 5 v 18.18636 h -2.4 l -0.1,0.1 -0.1,-0.1 h -2.4 v 18.18636 h 5 v 18.18637 h -2.4 l -0.1,0.1 -0.1,-0.1 h -2.4 v 18.18636 h 5 V 400.1 h -17.50417 v 2.4 l 0.1,0.1 -0.1,0.1 v 2.4 H 677.6875 v -5 h -25.00833 v 2.4 l 0.1,0.1 -0.1,0.1 v 2.4 h -25.00834 v -5 H 602.6625 v 2.4 l 0.1,0.1 -0.1,0.1 v 2.4 h -25.00833 v -5 h -25.00834 v 2.4 l 0.1,0.1 -0.1,0.1 v 2.4 H 527.6375 v -5 h -25.00833 v 2.4 l 0.1,0.1 -0.1,0.1 v 2.4 h -25.00834 v -5 H 452.6125 v 2.4 l 0.1,0.1 -0.1,0.1 v 2.4 h -25.00833 v -5 H 410.1 v -9.09318 h 5 v -18.18636 h -2.4 l -0.1,0.1 -0.1,-0.1 h -2.4 v -18.18637 h 5 v -18.18636 h -2.4 l -0.1,0.1 -0.1,-0.1 h -2.4 v -18.18636 h 5 V 300.075 h -2.4 l -0.1,0.1 -0.1,-0.1 h -2.4 v -18.18636 h 5 v -18.18636 h -2.4 l -0.1,0.1 -0.1,-0.1 h -2.4 v -18.18637 h 5 v -18.18636 h -2.4 l -0.1,0.1 -0.1,-0.1 h -2.4 v -18.18637 h 5 v -18.18636 h -2.4 l -0.1,0.1 -0.1,-0.1 h -2.4 v -18.18636 h 5 v -18.18637 h -2.4 l -0.1,0.1 -0.1,-0.1 h -2.4 v -18.18636 h 5 v -18.18637 h -2.4 l -0.1,0.1 -0.1,-0.1 h -2.4 V 100.025 h 5 V 81.838637 h -2.4 l -0.1,0.1 -0.1,-0.1 h -2.4 V 63.652273 h 5 V 45.465909 h -2.4 l -0.1,0.1 -0.1,-0.1 h -2.4 V 27.279545 h 5 V 9.0931818 h -2.4 l -0.1,0.1 -0.1,-0.1 h -2.4 V 0"
         inkscape:connector-curvature="0" />
      <path
         style="fill:none;stroke:#0000ff;stroke-width:0.1;stroke-linecap:butt;stroke-linejoin:miter"
         id="box-endface1"
         d="m 410.1,730.2 h 17.50417 v -5 h 25.00833 v 2.4 l 0.1,0.1 -0.1,0.1 v 2.4 h 25.00833 v -5 h 25.00834 v 2.4 l 0.1,0.1 -0.1,0.1 v 2.4 h 25.00833 v -5 h 25.00833 v 2.4 l 0.1,0.1 -0.1,0.1 v 2.4 h 25.00834 v -5 h 25.00833 v 2.4 l 0.1,0.1 -0.1,0.1 v 2.4 h 25.00833 v -5 h 25.00834 v 2.4 l 0.1,0.1 -0.1,0.1 v 2.4 h 25.00833 v -5 h 25.00833 v 2.4 l 0.1,0.1 -0.1,0.1 v 2.4 H 720.2 v 9.09318 h -2.4 l -0.1,0.1 -0.1,-0.1 h -2.4 v 18.18637 h 5 v 18.18636 h -2.4 l -0.1,0.1 -0.1,-0.1 h -2.4 v 18.18636 h 5 v 18.18637 h -2.4 l -0.1,0.1 -0.1,-0.1 h -2.4 V 830.225 h 5 v 18.18636 h -2.4 l -0.1,0.1 -0.1,-0.1 h -2.4 v 18.18637 h 5 v 18.18636 h -2.4 l -0.1,0.1 -0.1,-0.1 h -2.4 v 18.18637 h 5 v 18.18636 h -2.4 l -0.1,0.1 -0.1,-0.1 h -2.4 v 18.18636 h 5 v 18.18637 h -2.4 l -0.1,0.1 -0.1,-0.1 h -2.4 v 18.18636 h 5 v 18.18637 h -2.4 l -0.1,0.1 -0.1,-0.1 h -2.4 v 18.18632 h 5 v 18.1864 h -2.4 l -0.1,0.1 -0.1,-0.1 h -2.4 v 18.1864 h 5 v 18.1863 h -2.4 l -0.1,0.1 -0.1,-0.1 h -2.4 v 18.1864 h 5 v 18.1864 h -2.4 l -0.1,0.1 -0.1,-0.1 h -2.4 v 18.1863 h 5 v 9.0932 h -17.50417 v 2.4 l 0.1,0.1 -0.1,0.1 v 2.4 H 677.6875 v -5 h -25.00833 v 2.4 l 0.1,0.1 -0.1,0.1 v 2.4 h -25.00834 v -5 H 602.6625 v 2.4 l 0.1,0.1 -0.1,0.1 v 2.4 h -25.00833 v -5 h -25.00834 v 2.4 l 0.1,0.1 -0.1,0.1 v 2.4 H 527.6375 v -5 h -25.00833 v 2.4 l 0.1,0.1 -0.1,0.1 v 2.4 h -25.00834 v -5 H 452.6125 v 2.4 l 0.1,0.1 -0.1,0.1 v 2.4 h -25.00833 v -5 H 410.1 v -9.0932 h 5 v -18.1863 h -2.4 l -0.1,0.1 -0.1,-0.1 h -2.4 v -18.1864 h 5 v -18.1864 h -2.4 l -0.1,0.1 -0.1,-0.1 h -2.4 v -18.1863 h 5 v -18.1864 h -2.4 l -0.1,0.1 -0.1,-0.1 h -2.4 v -18.1864 h 5 v -18.18632 h -2.4 l -0.1,0.1 -0.1,-0.1 h -2.4 v -18.18637 h 5 v -18.18636 h -2.4 l -0.1,0.1 -0.1,-0.1 h -2.4 v -18.18637 h 5 v -18.18636 h -2.4 l -0.1,0.1 -0.1,-0.1 h -2.4 v -18.18636 h 5 v -18.18637 h -2.4 l -0.1,0.1 -0.1,-0.1 h -2.4 v -18.18636 h 5 v -18.18637 h -2.4 l -0.1,0.1 -0.1,-0.1 h -2.4 V 830.225 h 5 v -18.18636 h -2.4 l -0.1,0.1 -0.1,-0.1 h -2.4 v -18.18637 h 5 v -18.18636 h -2.4 l -0.1,0.1 -0.1,-0.1 h -2.4 v -18.18636 h 5 v -18.18637 h -2.4 l -0.1,0.1 -0.1,-0.1 h -2.4 V 730.2"
         inkscape:connector-curvature="0" />
    </g>
  </g>
</svg>
